<svg width="94" height="59" viewBox="0 0 94 59" fill="none" xmlns="http://www.w3.org/2000/svg">
<g clip-path="url(#clip0)">
<path d="M1.67013 4.56195H12.0002L10.3184 6.10879V9.15339C10.3184 9.50329 10.0951 9.78669 9.81865 9.78669H1.67013C1.39372 9.78669 1.17041 9.5017 1.17041 9.15339V5.19525C1.17041 4.84694 1.39372 4.56195 1.67013 4.56195Z" fill="#ECECEC"/>
<path d="M84.0947 48.7136C84.0947 48.7263 85.6563 48.7358 87.574 48.7358C89.4917 48.7358 91.0549 48.7263 91.0549 48.7136C91.0549 48.7009 89.4932 48.6898 87.574 48.6898C85.6548 48.6898 84.0947 48.7009 84.0947 48.7136Z" fill="#E0E0E0"/>
<path d="M84.0947 49.882C84.0947 49.8947 85.6563 49.9042 87.574 49.9042C89.4917 49.9042 91.0549 49.8947 91.0549 49.882C91.0549 49.8694 89.4932 49.8583 87.574 49.8583C85.6548 49.8583 84.0947 49.8694 84.0947 49.882Z" fill="#E0E0E0"/>
<path d="M27.7472 3.67789H26.7056V7.21488H27.7472V3.67789Z" fill="#E0E0E0"/>
<path d="M19.0484 3.16494H18.0068V7.21332H19.0484V3.16494Z" fill="#E0E0E0"/>
<path d="M21.2237 2.32105H20.1821V7.21331H21.2237V2.32105Z" fill="#E0E0E0"/>
<path d="M23.3976 2.58862H22.356V7.21331H23.3976V2.58862Z" fill="#E0E0E0"/>
<path d="M25.5733 1.02436H24.5317V7.21331H25.5733V1.02436Z" fill="#E0E0E0"/>
<path d="M29.9225 1.05445H28.8809V7.21331H29.9225V1.05445Z" fill="#E0E0E0"/>
<path d="M32.0963 3.07785H31.0547V7.21331H32.0963V3.07785Z" fill="#E0E0E0"/>
<path d="M34.2711 1.32676H33.2295V7.21489H34.2711V1.32676Z" fill="#E0E0E0"/>
<path d="M36.4449 0H35.4033V7.21331H36.4449V0Z" fill="#E0E0E0"/>
<path d="M38.6187 1.29668H37.5771V7.21489H38.6187V1.29668Z" fill="#E0E0E0"/>
<path d="M81.1558 8.24243L85.9969 7.49356C86.1509 8.51736 85.9848 9.56436 85.5219 10.4876C85.059 11.4107 84.3225 12.1638 83.4158 12.6409C82.5092 13.118 81.4779 13.2952 80.4669 13.1477C79.4558 13.0002 78.5157 12.5353 77.7785 11.8184C77.0414 11.1014 76.5442 10.1684 76.3569 9.15032C76.1695 8.13225 76.3014 7.08025 76.7339 6.14203C77.1664 5.20381 77.8779 4.4265 78.7685 3.91924C79.6591 3.41198 80.684 3.20024 81.6993 3.31376L81.1558 8.24243Z" fill="#EBEBEB"/>
<path d="M82.7234 3.32959L82.1362 7.1294L85.8123 6.42802C85.8123 6.42802 85.2735 4.29854 82.7234 3.32959Z" fill="#E0E0E0"/>
<path d="M0.00178854 26.4198C-0.00859939 25.5644 0.23125 24.725 0.69105 24.0077C1.15085 23.2904 1.80998 22.7273 2.58521 22.3896C3.36044 22.0518 4.21701 21.9545 5.04674 22.1099C5.87648 22.2654 6.64218 22.6666 7.24715 23.263C7.85213 23.8593 8.26925 24.624 8.44584 25.4606C8.62243 26.2971 8.55058 27.1679 8.23935 27.9631C7.92812 28.7583 7.39148 29.4421 6.69719 29.9282C6.00289 30.4144 5.18208 30.6811 4.3384 30.6946C3.20472 30.709 2.11165 30.2671 1.29876 29.4658C0.485869 28.6645 0.019473 27.5691 0.00178854 26.4198ZM6.31228 26.3169C6.3039 25.9077 6.17614 25.5103 5.94515 25.1747C5.71415 24.8392 5.39028 24.5805 5.0144 24.4314C4.63853 24.2823 4.2275 24.2494 3.83322 24.3369C3.43894 24.4245 3.07907 24.6285 2.79905 24.9232C2.51903 25.2179 2.33141 25.5901 2.25987 25.9929C2.18834 26.3956 2.23609 26.8108 2.39711 27.186C2.55812 27.5613 2.82518 27.8798 3.16458 28.1012C3.50397 28.3227 3.90048 28.4373 4.30405 28.4305C4.84664 28.4197 5.36283 28.1911 5.73934 27.7948C6.11585 27.3985 6.3219 26.867 6.31228 26.3169Z" fill="#F5F5F5"/>
<path d="M0.00161979 26.4198C-0.018031 25.2696 0.413261 24.1584 1.20083 23.3302C1.9884 22.5021 3.0679 22.0246 4.20237 22.0025L4.23829 24.2713C3.70246 24.2922 3.19599 24.525 2.82729 24.9197C2.45858 25.3144 2.25693 25.8398 2.26551 26.3834C2.27408 26.927 2.49219 27.4456 2.87315 27.8282C3.25411 28.2108 3.76766 28.427 4.30388 28.4305L4.33823 30.6993C3.20375 30.7137 2.10998 30.2712 1.29696 29.4688C0.483933 28.6665 0.0180761 27.57 0.00161979 26.4198Z" fill="#E0E0E0"/>
<path d="M3.81787 21.6526C4.46687 21.6366 5.11249 21.7521 5.71691 21.9923C6.32132 22.2324 6.87238 22.5925 7.33778 23.0514C7.80318 23.5103 8.17356 24.0587 8.42723 24.6646C8.6809 25.2704 8.81275 25.9215 8.81505 26.5797L6.20871 26.6224C6.18684 25.2814 5.18116 24.4375 3.86628 24.4581L3.81787 21.6526Z" fill="#EBEBEB"/>
<path d="M79.4021 9.19238H11.328C10.0714 9.19238 9.05273 10.2252 9.05273 11.4992V55.577C9.05273 56.851 10.0714 57.8838 11.328 57.8838H79.4021C80.6587 57.8838 81.6774 56.851 81.6774 55.577V11.4992C81.6774 10.2252 80.6587 9.19238 79.4021 9.19238Z" fill="#7B7B7B"/>
<path d="M6.67588 54.7395H85.358V56.1818C85.358 56.9292 85.0651 57.6461 84.5438 58.1746C84.0225 58.7031 83.3155 59 82.5783 59H9.454C8.71678 59 8.00976 58.7031 7.48847 58.1746C6.96717 57.6461 6.67432 56.9292 6.67432 56.1818V54.7395H6.67588Z" fill="#7B7B7B"/>
<path d="M38.2065 54.2819L39.1826 55.8572H52.9217L53.8274 54.2819H38.2065Z" fill="black"/>
<path d="M81.0527 54.2819C81.0527 54.3088 64.9337 54.3294 45.0558 54.3294C25.178 54.3294 9.05273 54.3088 9.05273 54.2819C9.05273 54.255 25.1686 54.2344 45.0558 54.2344C64.943 54.2344 81.0527 54.255 81.0527 54.2819Z" fill="black"/>
<path d="M78.8024 11.9932H11.6435C11.3614 11.9932 11.1328 12.2249 11.1328 12.5109V52.4786C11.1328 52.7645 11.3614 52.9963 11.6435 52.9963H78.8024C79.0844 52.9963 79.313 52.7645 79.313 52.4786V12.5109C79.313 12.2249 79.0844 11.9932 78.8024 11.9932Z" fill="#EBEBEB"/>
<path d="M79.2393 53.0549H11.0591L11.1325 15.0567H79.2393V53.0549Z" fill="white"/>
<path d="M16.7253 13.5764C16.7262 13.6859 16.695 13.7932 16.6357 13.8847C16.5764 13.9762 16.4916 14.0477 16.3921 14.0903C16.2926 14.1328 16.1828 14.1445 16.0768 14.1237C15.9708 14.1029 15.8732 14.0507 15.7966 13.9736C15.7199 13.8965 15.6675 13.798 15.6461 13.6907C15.6247 13.5834 15.6352 13.4721 15.6763 13.3708C15.7174 13.2696 15.7872 13.183 15.877 13.1221C15.9667 13.0611 16.0723 13.0286 16.1802 13.0286C16.3241 13.0282 16.4623 13.0856 16.5644 13.1883C16.6666 13.291 16.7244 13.4306 16.7253 13.5764Z" fill="black"/>
<path d="M13.4254 13.5764C13.4264 13.6861 13.3951 13.7936 13.3355 13.8852C13.276 13.9768 13.1909 14.0483 13.0912 14.0907C12.9914 14.1331 12.8814 14.1445 12.7753 14.1233C12.6691 14.1021 12.5716 14.0494 12.4951 13.9718C12.4186 13.8943 12.3666 13.7954 12.3457 13.6878C12.3248 13.5801 12.336 13.4687 12.3778 13.3675C12.4197 13.2663 12.4902 13.1801 12.5806 13.1197C12.6709 13.0594 12.7769 13.0277 12.8851 13.0286C13.0282 13.0294 13.1651 13.0874 13.2663 13.19C13.3674 13.2925 13.4246 13.4314 13.4254 13.5764Z" fill="black"/>
<path d="M15.0085 13.5764C15.0085 13.6857 14.9765 13.7925 14.9166 13.8834C14.8567 13.9743 14.7716 14.0451 14.672 14.0869C14.5724 14.1287 14.4629 14.1397 14.3571 14.1184C14.2514 14.097 14.1543 14.0444 14.0781 13.9671C14.0019 13.8899 13.95 13.7914 13.9289 13.6842C13.9079 13.577 13.9187 13.4659 13.9599 13.365C14.0012 13.264 14.071 13.1777 14.1607 13.117C14.2503 13.0563 14.3557 13.0239 14.4635 13.0239C14.5351 13.0237 14.6061 13.0378 14.6723 13.0655C14.7385 13.0932 14.7986 13.1339 14.8493 13.1852C14.8999 13.2366 14.9401 13.2976 14.9674 13.3647C14.9947 13.4319 15.0087 13.5038 15.0085 13.5764Z" fill="black"/>
<path d="M79.3127 49.3865H11.0591V53.0565H79.3127V49.3865Z" fill="black"/>
<path d="M13.639 51.6442V51.7614H13.0956V51.6695L13.3876 51.3877C13.4594 51.3181 13.4719 51.2737 13.4719 51.2294C13.4719 51.1613 13.4251 51.1217 13.3345 51.1217C13.3019 51.1199 13.2693 51.126 13.2394 51.1395C13.2095 51.153 13.1832 51.1735 13.1627 51.1993L13.0659 51.1249C13.1002 51.0837 13.1434 51.0511 13.1921 51.0296C13.2409 51.0082 13.2939 50.9985 13.347 51.0014C13.5032 51.0014 13.6109 51.0821 13.6109 51.2151C13.6099 51.2615 13.5982 51.307 13.5768 51.3479C13.5554 51.3889 13.5248 51.4242 13.4876 51.451L13.2908 51.641L13.639 51.6442Z" fill="white"/>
<path d="M13.7127 51.2737C13.7127 51.2561 13.7179 51.2389 13.7275 51.2243C13.7372 51.2097 13.751 51.1983 13.7671 51.1917C13.7831 51.185 13.8008 51.1833 13.8178 51.1869C13.8348 51.1904 13.8504 51.1991 13.8625 51.2116C13.8747 51.2242 13.8829 51.2401 13.8861 51.2574C13.8893 51.2747 13.8873 51.2926 13.8805 51.3088C13.8736 51.3249 13.8622 51.3387 13.8476 51.3482C13.833 51.3578 13.8159 51.3627 13.7986 51.3624C13.7871 51.3626 13.7757 51.3605 13.7651 51.3561C13.7545 51.3517 13.7448 51.3451 13.7368 51.3368C13.7288 51.3285 13.7225 51.3186 13.7183 51.3078C13.7142 51.2969 13.7123 51.2853 13.7127 51.2737ZM13.7127 51.6806C13.711 51.6681 13.712 51.6554 13.7156 51.6432C13.7192 51.6311 13.7253 51.62 13.7335 51.6104C13.7417 51.6009 13.7519 51.5933 13.7632 51.5881C13.7746 51.5828 13.7869 51.5801 13.7994 51.5801C13.8118 51.5801 13.8242 51.5828 13.8355 51.5881C13.8469 51.5933 13.857 51.6009 13.8652 51.6104C13.8734 51.62 13.8795 51.6311 13.8831 51.6432C13.8867 51.6554 13.8877 51.6681 13.886 51.6806C13.8877 51.6932 13.8867 51.7059 13.8831 51.718C13.8795 51.7301 13.8734 51.7413 13.8652 51.7508C13.857 51.7603 13.8469 51.768 13.8355 51.7732C13.8242 51.7784 13.8118 51.7811 13.7994 51.7811C13.7869 51.7811 13.7746 51.7784 13.7632 51.7732C13.7519 51.768 13.7417 51.7603 13.7335 51.7508C13.7253 51.7413 13.7192 51.7301 13.7156 51.718C13.712 51.7059 13.711 51.6932 13.7127 51.6806Z" fill="white"/>
<path d="M14.2281 51.0141V51.7614H14.0922V51.1281H13.936V51.0109L14.2281 51.0141Z" fill="white"/>
<path d="M15.0321 51.592H14.901V51.7614H14.7682V51.592H14.3638V51.5017L14.7276 51.0267H14.8744L14.5309 51.4875H14.7729V51.3371H14.901V51.4875H15.0321V51.592Z" fill="white"/>
<path d="M72.1797 51.2943H16.2363V51.5524H72.1797V51.2943Z" fill="white"/>
<path d="M33.6762 51.0156H16.1938V51.7059H33.6762V51.0156Z" fill="#FF725E"/>
<path d="M34.2417 51.4225C34.2417 51.5932 34.1918 51.76 34.0983 51.9019C34.0048 52.0438 33.8718 52.1544 33.7163 52.2197C33.5608 52.285 33.3897 52.3021 33.2246 52.2688C33.0595 52.2355 32.9079 52.1534 32.7888 52.0327C32.6698 51.912 32.5887 51.7583 32.5559 51.5909C32.5231 51.4235 32.5399 51.25 32.6043 51.0923C32.6687 50.9347 32.7778 50.7999 32.9178 50.7051C33.0578 50.6103 33.2223 50.5597 33.3906 50.5597C33.6163 50.5597 33.8328 50.6506 33.9924 50.8124C34.152 50.9742 34.2417 51.1937 34.2417 51.4225Z" fill="#FF725E"/>
<path d="M73.5879 51.4146C73.5876 51.4491 73.5803 51.4831 73.5663 51.5146C73.5524 51.546 73.5321 51.5742 73.5068 51.5973C73.4816 51.6203 73.4519 51.6378 73.4196 51.6486C73.3873 51.6594 73.3531 51.6633 73.3193 51.66C73.1179 51.66 73.007 51.5286 73.007 51.288C73.0008 51.2368 73.0057 51.185 73.0213 51.136C73.0369 51.087 73.0628 51.042 73.0973 51.0042C73.1318 50.9664 73.174 50.9366 73.2209 50.917C73.2679 50.8974 73.3185 50.8884 73.3693 50.8906C73.437 50.8889 73.5039 50.9059 73.5629 50.9397L73.5114 51.0441C73.4697 51.0181 73.4213 51.0054 73.3724 51.0077C73.2334 51.0077 73.146 51.0948 73.146 51.2642C73.1712 51.2375 73.2019 51.2167 73.2359 51.2033C73.2699 51.1899 73.3063 51.1842 73.3427 51.1866C73.3738 51.1845 73.4049 51.1888 73.4343 51.1992C73.4636 51.2096 73.4906 51.226 73.5135 51.2473C73.5365 51.2686 73.5549 51.2945 73.5677 51.3232C73.5804 51.352 73.5873 51.3831 73.5879 51.4146ZM73.4552 51.4146C73.4552 51.3371 73.3974 51.288 73.3084 51.288C73.2896 51.2848 73.2704 51.2857 73.2521 51.2906C73.2337 51.2956 73.2166 51.3044 73.2018 51.3165C73.1871 51.3286 73.175 51.3438 73.1665 51.3609C73.1579 51.3781 73.1531 51.397 73.1522 51.4162C73.1522 51.4859 73.2069 51.5413 73.3084 51.5413C73.326 51.5442 73.344 51.5433 73.3612 51.5387C73.3784 51.5341 73.3945 51.5258 73.4083 51.5145C73.4222 51.5031 73.4335 51.4889 73.4416 51.4728C73.4497 51.4567 73.4543 51.439 73.4552 51.421V51.4146Z" fill="white"/>
<path d="M73.6551 51.1581C73.6534 51.1456 73.6544 51.1329 73.658 51.1208C73.6616 51.1087 73.6677 51.0975 73.6759 51.088C73.6841 51.0784 73.6942 51.0708 73.7056 51.0656C73.717 51.0604 73.7293 51.0577 73.7418 51.0577C73.7542 51.0577 73.7665 51.0604 73.7779 51.0656C73.7893 51.0708 73.7994 51.0784 73.8076 51.088C73.8158 51.0975 73.8219 51.1087 73.8255 51.1208C73.8291 51.1329 73.8301 51.1456 73.8284 51.1581C73.8301 51.1707 73.8291 51.1834 73.8255 51.1955C73.8219 51.2076 73.8158 51.2188 73.8076 51.2283C73.7994 51.2378 73.7893 51.2455 73.7779 51.2507C73.7665 51.2559 73.7542 51.2586 73.7418 51.2586C73.7293 51.2586 73.717 51.2559 73.7056 51.2507C73.6942 51.2455 73.6841 51.2378 73.6759 51.2283C73.6677 51.2188 73.6616 51.2076 73.658 51.1955C73.6544 51.1834 73.6534 51.1707 73.6551 51.1581ZM73.6551 51.565C73.6534 51.5525 73.6544 51.5398 73.658 51.5277C73.6616 51.5156 73.6677 51.5044 73.6759 51.4949C73.6841 51.4853 73.6942 51.4777 73.7056 51.4725C73.717 51.4673 73.7293 51.4646 73.7418 51.4646C73.7542 51.4646 73.7665 51.4673 73.7779 51.4725C73.7893 51.4777 73.7994 51.4853 73.8076 51.4949C73.8158 51.5044 73.8219 51.5156 73.8255 51.5277C73.8291 51.5398 73.8301 51.5525 73.8284 51.565C73.8301 51.5776 73.8291 51.5903 73.8255 51.6024C73.8219 51.6145 73.8158 51.6257 73.8076 51.6352C73.7994 51.6447 73.7893 51.6524 73.7779 51.6576C73.7665 51.6628 73.7542 51.6655 73.7418 51.6655C73.7293 51.6655 73.717 51.6628 73.7056 51.6576C73.6942 51.6524 73.6841 51.6447 73.6759 51.6352C73.6677 51.6257 73.6616 51.6145 73.658 51.6024C73.6544 51.5903 73.6534 51.5776 73.6551 51.565Z" fill="white"/>
<path d="M73.916 51.2721C73.916 51.0267 74.0488 50.8874 74.2283 50.8874C74.4079 50.8874 74.5407 51.0267 74.5407 51.2721C74.5407 51.5175 74.4079 51.6569 74.2283 51.6569C74.0488 51.6569 73.916 51.5175 73.916 51.2721ZM74.3939 51.2721C74.3939 51.0916 74.3252 51.0093 74.2237 51.0093C74.1221 51.0093 74.0534 51.0916 74.0534 51.2721C74.0534 51.4526 74.1237 51.5365 74.2237 51.5365C74.3236 51.5365 74.3939 51.4526 74.3939 51.2721Z" fill="white"/>
<path d="M74.6235 51.2721C74.6235 51.0267 74.7563 50.8874 74.9358 50.8874C75.1154 50.8874 75.2482 51.0267 75.2482 51.2721C75.2482 51.5175 75.1154 51.6569 74.9358 51.6569C74.7563 51.6569 74.6235 51.5175 74.6235 51.2721ZM75.1029 51.2721C75.1029 51.0916 75.0327 51.0093 74.9312 51.0093C74.8297 51.0093 74.7625 51.0916 74.7625 51.2721C74.7625 51.4526 74.8312 51.5365 74.9312 51.5365C75.0311 51.5365 75.1029 51.4526 75.1029 51.2721Z" fill="white"/>
<path d="M76.4319 51.2262H76.1758V50.4805H76.9097V50.7402H76.4319V51.2262Z" fill="white"/>
<path d="M76.9113 52.1999H76.1758V51.4558H76.4303V51.9403H76.9113V52.1999Z" fill="white"/>
<path d="M78.081 52.1999H77.3486V51.9403H77.8265V51.4542H78.081V52.1999Z" fill="white"/>
<path d="M78.0822 51.2246H77.8277V50.7402H77.3467V50.4805H78.0822V51.2246Z" fill="white"/>
<path d="M20.4087 17.3161H16.3907L14.3809 20.8451L16.3907 24.3726H20.4087L22.4185 20.8451L20.4087 17.3161Z" fill="#EBEBEB"/>
<path d="M16.7186 21.5354C16.5317 21.3406 16.3672 21.125 16.2283 20.8926C16.0881 20.6581 16.0293 20.3828 16.0612 20.1105C16.1033 19.9579 16.1372 19.803 16.1627 19.6466C16.1783 19.4281 16.0877 19.2001 16.1627 18.9959C16.2814 18.6792 16.7046 18.627 16.9622 18.4069C17.1621 18.2343 17.2605 17.9557 17.4807 17.8116C17.6852 17.7018 17.9215 17.6693 18.1475 17.7198C18.3711 17.772 18.6008 17.7923 18.8299 17.78C18.9882 17.7456 19.1446 17.7028 19.2984 17.6517C19.4531 17.6024 19.6205 17.6143 19.7669 17.685C19.8384 17.7246 19.8918 17.7909 19.9157 17.8699C19.9397 17.9489 19.9322 18.0342 19.8949 18.1077C20.1588 17.9842 20.493 18.1932 20.5649 18.4766C20.5924 18.6217 20.5794 18.7716 20.5272 18.9096C20.475 19.0475 20.3859 19.1679 20.2697 19.2571C20.0361 19.4336 19.762 19.5469 19.4733 19.5864C18.6659 19.7448 17.7914 19.6545 17.0965 19.2112" fill="black"/>
<path d="M20.4448 22.4062C20.4182 21.9012 20.2793 20.8657 20.1418 19.93C20.0708 19.4453 19.8226 19.0053 19.4466 18.6974C19.0705 18.3895 18.5941 18.2361 18.1117 18.2676H18.0118C16.9436 18.4038 16.4611 19.3996 16.6251 20.4842L16.9374 24.3711H19.5453C19.5453 24.3711 19.4828 23.6887 19.4828 23.6823C19.4828 23.676 20.501 23.4512 20.4448 22.4062Z" fill="#FFBE9D"/>
<path d="M19.4809 23.6697C19.0055 23.7102 18.529 23.6072 18.1113 23.3736C18.1113 23.3736 18.4799 24.1035 19.5012 23.9404L19.4809 23.6697Z" fill="#EB996E"/>
<path d="M19.8092 20.8261C19.8122 20.8647 19.8002 20.9029 19.7756 20.9326C19.7511 20.9622 19.716 20.9808 19.678 20.9845C19.6597 20.9869 19.6412 20.9856 19.6234 20.9807C19.6056 20.9758 19.589 20.9674 19.5744 20.9559C19.5599 20.9444 19.5478 20.9301 19.5387 20.9138C19.5297 20.8975 19.524 20.8795 19.5218 20.861C19.5192 20.8225 19.5314 20.7845 19.5559 20.7549C19.5803 20.7254 19.6152 20.7067 19.653 20.7026C19.6713 20.7002 19.6899 20.7015 19.7076 20.7064C19.7254 20.7113 19.7421 20.7198 19.7566 20.7312C19.7711 20.7427 19.7833 20.757 19.7923 20.7733C19.8013 20.7896 19.8071 20.8076 19.8092 20.8261Z" fill="black"/>
<path d="M19.9542 20.4557C19.937 20.4762 19.8199 20.4002 19.6606 20.4113C19.5013 20.4224 19.392 20.5111 19.3732 20.4921C19.3545 20.4731 19.3732 20.4477 19.4295 20.4066C19.4948 20.3542 19.5743 20.3232 19.6575 20.3179C19.7399 20.3119 19.822 20.333 19.8917 20.3781C19.9432 20.4129 19.962 20.4462 19.9542 20.4557Z" fill="black"/>
<path d="M18.3132 20.9354C18.3137 20.9733 18.3007 21.0102 18.2767 21.0393C18.2526 21.0683 18.219 21.0876 18.1821 21.0937C18.1451 21.0978 18.108 21.0869 18.0788 21.0635C18.0496 21.0401 18.0306 21.0061 18.0259 20.9686C18.0254 20.9307 18.0384 20.8938 18.0625 20.8648C18.0865 20.8357 18.1201 20.8164 18.1571 20.8103C18.1941 20.8063 18.2311 20.8171 18.2603 20.8405C18.2895 20.8639 18.3085 20.898 18.3132 20.9354Z" fill="black"/>
<path d="M18.399 20.5918C18.3818 20.6124 18.2647 20.5364 18.1054 20.5475C17.9461 20.5586 17.8368 20.6456 17.8181 20.6282C17.7993 20.6108 17.8181 20.5839 17.8743 20.5427C17.9397 20.4892 18.0199 20.4575 18.1038 20.4521C18.1877 20.4467 18.2712 20.4679 18.3428 20.5127C18.3881 20.5475 18.4068 20.5823 18.399 20.5918Z" fill="black"/>
<path d="M19.052 21.7365C19.1337 21.704 19.2193 21.6822 19.3065 21.6716C19.3471 21.6716 19.3846 21.6542 19.3893 21.6257C19.3899 21.5835 19.3779 21.5421 19.3549 21.507L19.2144 21.203C19.0864 20.948 18.9783 20.6834 18.8911 20.4113C19.0401 20.6574 19.169 20.9152 19.2768 21.1824C19.3237 21.2885 19.369 21.3914 19.4127 21.488C19.44 21.5358 19.4509 21.5915 19.4439 21.6463C19.4388 21.6611 19.4305 21.6745 19.4198 21.6857C19.409 21.6969 19.3959 21.7056 19.3815 21.7112C19.3592 21.7185 19.3361 21.7233 19.3127 21.7254C19.2266 21.7404 19.139 21.7441 19.052 21.7365Z" fill="black"/>
<path d="M18.3972 19.9585C18.3847 20.0028 18.2254 19.9933 18.0412 20.0298C17.8569 20.0662 17.7101 20.1263 17.682 20.0883C17.6539 20.0503 17.6945 20.0282 17.7523 19.9807C17.8292 19.9228 17.9186 19.8843 18.013 19.8683C18.107 19.8495 18.204 19.8544 18.2957 19.8825C18.366 19.9063 18.4034 19.9379 18.3972 19.9585Z" fill="black"/>
<path d="M19.8653 19.9949C19.8387 20.0329 19.7279 20.0028 19.5967 20.0092C19.4655 20.0155 19.3562 20.0503 19.3281 20.0092C19.3 19.968 19.3281 19.9538 19.3765 19.9158C19.4383 19.8688 19.5132 19.8427 19.5904 19.8414C19.6675 19.8379 19.7437 19.8583 19.8091 19.8999C19.8575 19.9395 19.8762 19.9759 19.8653 19.9949Z" fill="black"/>
<path d="M16.7578 21.2615C16.739 21.2615 16.0348 21.1032 16.105 21.8109C16.1753 22.5186 16.9374 22.2859 16.9358 22.2701C16.9342 22.2542 16.7578 21.2615 16.7578 21.2615Z" fill="#FFBE9D"/>
<path d="M16.6236 22.0294C16.6236 22.0294 16.6126 22.0389 16.5939 22.05C16.5658 22.0657 16.5327 22.0697 16.5018 22.0611C16.4535 22.0366 16.4125 21.9995 16.3831 21.9535C16.3538 21.9076 16.337 21.8545 16.3347 21.7999C16.3265 21.7392 16.3324 21.6774 16.3518 21.6194C16.3559 21.5961 16.3656 21.5743 16.38 21.5557C16.3945 21.5372 16.4132 21.5226 16.4346 21.5133C16.4483 21.5085 16.4631 21.5086 16.4767 21.5135C16.4903 21.5184 16.5019 21.5278 16.5096 21.5402C16.5221 21.5592 16.5189 21.575 16.5221 21.575C16.5252 21.575 16.5361 21.5624 16.5221 21.5323C16.5164 21.5155 16.5054 21.501 16.4908 21.4911C16.4805 21.4845 16.4689 21.4801 16.4568 21.4782C16.4447 21.4762 16.4324 21.4769 16.4205 21.48C16.3924 21.489 16.3669 21.5051 16.3465 21.5266C16.326 21.5482 16.3112 21.5747 16.3034 21.6035C16.28 21.6683 16.2725 21.7378 16.2816 21.8062C16.2833 21.8701 16.3041 21.932 16.3411 21.9837C16.3782 22.0354 16.4298 22.0745 16.4893 22.0959C16.5088 22.0995 16.5289 22.0987 16.548 22.0935C16.5672 22.0883 16.585 22.0789 16.6001 22.0658C16.6329 22.0532 16.6329 22.0294 16.6236 22.0294Z" fill="#EB996E"/>
<path d="M20.0903 18.9531C20.0419 19.2365 19.4734 19.4978 18.9972 19.4835C18.563 19.4709 18.3475 19.2524 18.0336 19.0972C17.8337 18.9991 17.8337 18.9991 17.5651 19.0434C17.3465 19.0798 17.2325 19.341 17.1107 19.5294C17.345 20.0472 17.2497 20.6488 17.1498 21.2093C17.1459 21.2722 17.1211 21.3319 17.0795 21.3787C17.0345 21.4067 16.9812 21.4178 16.9289 21.41C16.8767 21.4022 16.8288 21.376 16.7937 21.3359C16.6782 21.2099 16.6011 21.0526 16.572 20.8831C16.4736 20.5047 16.4502 20.1102 16.5032 19.7226C16.555 19.3348 16.7179 18.9709 16.9717 18.6761C17.3063 18.3185 17.765 18.1067 18.2507 18.0855C18.7344 18.0674 19.2114 18.2042 19.614 18.4766C19.8061 18.5937 19.9669 18.7568 20.0825 18.9516" fill="black"/>
<path d="M19.1561 22.1038L18.797 21.9344C18.7771 21.9229 18.7543 21.9174 18.7314 21.9186C18.7064 21.9242 18.6845 21.9396 18.6705 21.9613C18.6284 22.0121 18.602 22.0744 18.5948 22.1403C18.5876 22.2063 18.5998 22.2729 18.6299 22.3318C18.6627 22.3895 18.7144 22.4337 18.7761 22.4565C18.8378 22.4794 18.9054 22.4795 18.9672 22.4569C19.0275 22.4233 19.0778 22.3737 19.1127 22.3135C19.1476 22.2534 19.1659 22.1847 19.1655 22.1149L19.1561 22.1038Z" fill="#EB996E"/>
<path d="M18.9749 22.4838C18.9749 22.4838 18.8999 22.5424 18.7641 22.5028C18.6847 22.4755 18.6184 22.419 18.5782 22.3445C18.5527 22.2998 18.5374 22.2498 18.5333 22.1983C18.5293 22.1468 18.5366 22.0951 18.5548 22.0468C18.5739 21.9965 18.6038 21.9511 18.6423 21.9138C18.6609 21.8964 18.6813 21.881 18.7032 21.8679C18.7176 21.8602 18.7337 21.8561 18.75 21.8561C18.7664 21.8561 18.7824 21.8602 18.7969 21.8679C18.8796 21.9138 18.9343 21.9534 18.989 21.9882C19.0936 22.0595 19.156 22.1086 19.1451 22.1181C19.1342 22.1276 19.067 22.0975 18.9546 22.0389L18.7625 21.9376C18.7485 21.9376 18.75 21.9376 18.7344 21.9376C18.7187 21.9483 18.7041 21.9605 18.6907 21.974C18.6613 22.0033 18.6388 22.0391 18.6251 22.0785C18.6111 22.1158 18.605 22.1556 18.6071 22.1954C18.6093 22.2352 18.6197 22.2741 18.6376 22.3096C18.668 22.3694 18.7176 22.4168 18.7781 22.4442C18.8953 22.4949 18.9749 22.4696 18.9749 22.4838Z" fill="black"/>
<path d="M18.8646 20.8436C18.8646 20.8436 18.8646 20.7786 18.8271 20.6662C18.7818 20.5093 18.6869 20.3719 18.5569 20.2752C18.4529 20.1967 18.3293 20.1491 18.2001 20.1377C18.071 20.1263 17.9412 20.1516 17.8253 20.2106C17.7094 20.2696 17.612 20.3602 17.544 20.4721C17.4759 20.584 17.4399 20.7129 17.4399 20.8444C17.4399 20.9758 17.4759 21.1047 17.544 21.2166C17.612 21.3285 17.7094 21.4191 17.8253 21.4781C17.9412 21.5372 18.071 21.5624 18.2001 21.551C18.3293 21.5396 18.4529 21.492 18.5569 21.4135C18.6869 21.3168 18.7818 21.1794 18.8271 21.0225C18.8583 20.9101 18.8568 20.8436 18.8646 20.8436C18.8724 20.8436 18.8646 20.861 18.8646 20.8926C18.8656 20.939 18.8608 20.9852 18.8505 21.0304C18.8154 21.2006 18.7219 21.3526 18.5866 21.4594C18.4855 21.5395 18.3661 21.5924 18.2395 21.6135C18.1129 21.6345 17.9831 21.6229 17.862 21.5798C17.7122 21.5258 17.5826 21.4261 17.491 21.2944C17.3993 21.1627 17.3501 21.0055 17.3501 20.8444C17.3501 20.6832 17.3993 20.526 17.491 20.3943C17.5826 20.2626 17.7122 20.1629 17.862 20.1089C17.9831 20.0658 18.1129 20.0542 18.2395 20.0752C18.3661 20.0963 18.4855 20.1492 18.5866 20.2293C18.7219 20.3361 18.8154 20.4881 18.8505 20.6583C18.8609 20.7034 18.8656 20.7497 18.8646 20.7961C18.8693 20.8277 18.8677 20.8436 18.8646 20.8436Z" fill="black"/>
<path d="M20.6183 20.7739C20.6105 20.7739 20.6183 20.7106 20.5808 20.6013C20.537 20.4488 20.4448 20.3152 20.3184 20.2213C20.2171 20.1451 20.0969 20.0988 19.9712 20.0878C19.8455 20.0767 19.7193 20.1013 19.6065 20.1588C19.4938 20.2162 19.399 20.3044 19.3328 20.4133C19.2666 20.5221 19.2316 20.6476 19.2316 20.7755C19.2316 20.9034 19.2666 21.0288 19.3328 21.1377C19.399 21.2466 19.4938 21.3347 19.6065 21.3922C19.7193 21.4497 19.8455 21.4743 19.9712 21.4632C20.0969 21.4522 20.2171 21.4059 20.3184 21.3296C20.4448 21.2358 20.537 21.1022 20.5808 20.9496C20.612 20.8404 20.6105 20.7755 20.6183 20.7755C20.6261 20.7755 20.6183 20.7913 20.6183 20.823C20.6191 20.8682 20.6149 20.9133 20.6058 20.9576C20.5709 21.1232 20.4797 21.2712 20.3481 21.3755C20.2494 21.4538 20.1329 21.5056 20.0092 21.5261C19.8856 21.5465 19.7588 21.5351 19.6407 21.4927C19.4948 21.4399 19.3685 21.3426 19.2793 21.2142C19.19 21.0858 19.1421 20.9326 19.1421 20.7755C19.1421 20.6184 19.19 20.4652 19.2793 20.3368C19.3685 20.2084 19.4948 20.1111 19.6407 20.0583C19.7588 20.0159 19.8856 20.0044 20.0092 20.0249C20.1329 20.0454 20.2494 20.0972 20.3481 20.1754C20.4798 20.2804 20.571 20.4289 20.6058 20.595C20.6151 20.6392 20.6193 20.6844 20.6183 20.7296C20.623 20.7581 20.6214 20.7739 20.6183 20.7739Z" fill="black"/>
<path d="M19.1874 20.6108C19.1718 20.6251 19.1015 20.5791 19.0078 20.5823C18.9141 20.5855 18.8517 20.6314 18.8298 20.6171C18.808 20.6029 18.8735 20.5031 19.0063 20.5C19.139 20.4968 19.2077 20.5981 19.1874 20.6108Z" fill="black"/>
<path d="M17.4402 20.7391C17.4542 20.7565 17.3168 20.8831 17.1357 21.0209C17.0332 21.1156 16.9133 21.1888 16.7827 21.2362C16.7687 21.2188 16.9061 21.0921 17.0872 20.9544C17.1894 20.8593 17.3095 20.7861 17.4402 20.7391Z" fill="black"/>
<path d="M31.9366 20.8087C31.9366 20.8309 30.1299 20.8499 27.9014 20.8499C25.673 20.8499 23.8662 20.8309 23.8662 20.8087C23.8662 20.7866 25.673 20.7676 27.9014 20.7676C30.1299 20.7676 31.9366 20.7866 31.9366 20.8087Z" fill="black"/>
<path d="M28.2031 21.6653C28.2031 21.6874 27.2442 21.7064 26.0605 21.7064C24.8768 21.7064 23.918 21.6874 23.918 21.6653C23.918 21.6431 24.8768 21.6225 26.0605 21.6225C27.2442 21.6225 28.2031 21.6415 28.2031 21.6653Z" fill="black"/>
<path d="M56.1091 27.1338C56.816 27.5414 57.4362 28.0871 57.9337 28.7394C58.4312 29.3916 58.7962 30.1374 59.0075 30.9336C59.7617 33.6695 62.0682 40.7941 62.0682 40.7941C62.0682 40.7941 63.3862 42.3663 63.5268 43.53C63.6673 44.6937 63.3862 47.5103 62.9615 48.036C62.8385 48.1885 62.6805 48.3082 62.5014 48.3846C62.3223 48.461 62.1275 48.4919 61.9339 48.4745L56.3855 47.941L54.1992 33.109L56.1091 27.1338Z" fill="#FF725E"/>
<path d="M37.7627 26.8758C37.7627 26.8758 33.7947 28.1424 32.8062 29.2348L36.0543 44.5544L35.9965 49.3896H54.8109C54.8109 49.1506 54.9795 33.3386 54.9795 33.3386L56.1086 27.1338L49.4264 25.9416L48.1084 24.8904L40.6704 25.2735L39.5398 26.4182L37.7627 26.8758Z" fill="#FF725E"/>
<g opacity="0.3">
<path opacity="0.3" d="M39.2758 40.1672C39.218 40.0374 39.1337 39.8964 38.9963 39.8679C38.7698 39.8204 38.6184 40.0912 38.5418 40.3128C37.9419 42.0496 37.1108 43.695 36.0714 45.2035L36.0229 47.5562C37.1161 46.6205 38.1998 45.6183 38.8994 44.3501C39.5991 43.082 39.8598 41.4908 39.2758 40.1672Z" fill="black"/>
</g>
<path d="M32.8063 29.2348C32.8063 29.2348 31.4992 31.0413 30.9574 32.2208C30.4155 33.4003 25.9165 43.3036 25.6479 44.328C25.3793 45.3523 24.6797 48.5727 26.7332 49.32H30.9605L35.2018 40.6232L35.4189 30.5299L32.8063 29.2348Z" fill="#FF725E"/>
<path d="M31.2278 43.0376C31.2278 43.0376 31.1341 42.9537 30.9389 42.8413C30.6603 42.6898 30.3615 42.5799 30.0519 42.5151C29.839 42.4679 29.6229 42.4372 29.4054 42.4233C29.1548 42.4042 28.9028 42.4223 28.6574 42.4771C28.1019 42.6218 27.6046 42.9383 27.2347 43.3828C26.8587 43.8222 26.5835 44.3408 26.4289 44.9011C26.3014 45.3591 26.2167 45.8282 26.176 46.3023C26.1354 46.7076 26.1213 47.0385 26.1073 47.2649C26.1073 47.3726 26.0948 47.4597 26.0916 47.5277C26.0917 47.5588 26.0875 47.5897 26.0791 47.6196C26.0771 47.589 26.0771 47.5583 26.0791 47.5277C26.0791 47.4581 26.0791 47.3694 26.0791 47.2649C26.0791 47.0353 26.0885 46.706 26.1213 46.2976C26.1543 45.8157 26.2344 45.3384 26.3602 44.8726C26.5137 44.2996 26.7929 43.7692 27.177 43.321C27.5584 42.8642 28.0719 42.5407 28.6449 42.3964C28.8954 42.3435 29.1522 42.3291 29.4069 42.3537C29.6274 42.3701 29.8462 42.4045 30.0613 42.4566C30.3744 42.5271 30.6747 42.6468 30.9514 42.8112C31.0259 42.8579 31.0964 42.9109 31.1622 42.9695C31.1864 42.9898 31.2084 43.0126 31.2278 43.0376Z" fill="black"/>
<path d="M29.2236 41.3055C29.2698 41.2919 29.3176 41.2844 29.3657 41.2834C29.4962 41.2731 29.6272 41.2731 29.7577 41.2834C29.952 41.2949 30.1448 41.3241 30.3339 41.3705C30.7993 41.4845 31.236 41.6959 31.616 41.9911C31.7709 42.1106 31.9146 42.2441 32.0455 42.3901C32.1342 42.4891 32.2151 42.5949 32.2875 42.7067C32.317 42.7455 32.3412 42.7881 32.3594 42.8334C32.3469 42.8429 32.2313 42.6751 32.0033 42.4344C31.8686 42.2976 31.724 42.1711 31.5707 42.056C31.382 41.9167 31.1813 41.7948 30.9711 41.6919C30.7597 41.5919 30.5402 41.5103 30.3152 41.448C30.1306 41.3998 29.9427 41.3659 29.753 41.3467C29.4282 41.304 29.2236 41.3214 29.2236 41.3055Z" fill="black"/>
<path d="M33.0439 40.829C32.9786 40.8317 32.9131 40.8269 32.8487 40.8147C32.7238 40.7989 32.5442 40.7799 32.3194 40.7625C31.1515 40.6742 29.9778 40.8167 28.8635 41.1821C28.6495 41.2517 28.4778 41.3135 28.3606 41.3594C28.3009 41.3862 28.2386 41.4068 28.1748 41.4211C28.2286 41.3833 28.2868 41.3524 28.3481 41.3293C28.4621 41.2739 28.6324 41.2042 28.8447 41.1266C29.9599 40.7263 31.1489 40.5824 32.3256 40.7055C32.5489 40.7292 32.7301 40.7561 32.8534 40.7831C32.9182 40.7922 32.982 40.8076 33.0439 40.829Z" fill="black"/>
<path d="M45.082 32.3665C45.0649 32.3514 45.0501 32.3338 45.0383 32.3142L44.9227 32.1559L44.4979 31.5606C44.1341 31.0381 43.625 30.3098 43.0269 29.4549L43.0925 29.4454C42.8645 30.123 42.6131 30.8703 42.3492 31.6619L42.332 31.711L42.2883 31.6825L42.2008 31.6255C41.8605 31.4047 41.5512 31.1384 41.281 30.8339C41.0313 30.5504 40.811 30.2416 40.6236 29.9124C40.3116 29.3554 40.0687 28.7614 39.9005 28.1439C39.7876 27.7269 39.6964 27.3041 39.6273 26.8773C39.6023 26.7348 39.5835 26.6193 39.5679 26.5322C39.5635 26.5026 39.5567 26.4735 39.5476 26.4451C39.5476 26.4261 39.5367 26.4166 39.5382 26.415C39.5398 26.4134 39.6023 26.5733 39.6585 26.8726C39.7147 27.1718 39.8037 27.6025 39.9568 28.1233C40.1297 28.7351 40.3756 29.3231 40.6892 29.8744C40.8761 30.1974 41.0942 30.5008 41.3403 30.78C41.6059 31.0773 41.9094 31.3371 42.243 31.5527L42.3288 31.6097L42.2695 31.6318C42.5365 30.8402 42.7895 30.0977 43.0206 29.4153L43.0441 29.3456L43.0862 29.4058C43.6734 30.2687 44.1794 31.0033 44.5339 31.5289C44.7041 31.7854 44.8462 31.9897 44.9414 32.1385L45.0461 32.2968C45.0604 32.3187 45.0725 32.342 45.082 32.3665Z" fill="black"/>
<g opacity="0.3">
<path opacity="0.3" d="M49.9778 39.6795C49.8094 41.466 50.1913 43.2615 51.071 44.8188C51.9455 46.3609 53.2291 47.7367 54.8267 48.4745C54.8782 46.9023 54.8032 45.0499 54.8548 43.4778L49.9778 39.6795Z" fill="black"/>
</g>
<path d="M49.8015 37.6102C49.8015 37.6102 49.1175 37.8018 49.6298 39.222C50.142 40.6422 50.3137 40.5551 50.6557 41.8818C50.9977 43.2086 51.3959 44.4151 51.9925 45.1719C52.589 45.9286 54.8112 47.4517 54.8112 47.4517L56.8038 45.5518C56.8038 45.5518 56.4759 44.1269 56.554 43.1674C56.632 42.208 56.8319 39.8426 56.8038 39.4325C56.7757 39.0225 56.3478 38.0472 56.3478 38.0472V37.3759L55.3234 34.1809C55.3234 34.1809 54.7534 33.9212 54.5551 34.8443L54.2131 33.8642C54.2131 33.8642 53.6728 33.7772 53.5307 34.9029C53.3886 36.0285 53.6447 37.5865 53.6447 37.5865L53.3589 39.5481L52.9326 40.8765L52.5625 40.9335C52.5625 40.9335 52.005 40.7751 51.7005 39.7159C51.3959 38.6568 50.5698 37.3791 49.8015 37.6102Z" fill="#FFBE9D"/>
<path d="M56.1416 42.6355C56.1416 42.6355 56.1416 42.6117 56.1322 42.5642C56.1228 42.5167 56.1228 42.4391 56.1181 42.3521C56.1072 42.1589 56.0932 41.8913 56.076 41.5604C56.0447 40.8717 56.0026 39.9123 55.9526 38.7929L55.9604 38.8167C55.9094 38.763 55.8449 38.7247 55.7738 38.7057C55.7028 38.6867 55.628 38.6878 55.5575 38.709C55.4811 38.7278 55.4092 38.7618 55.3459 38.8091C55.2826 38.8564 55.2293 38.9161 55.189 38.9845C55.0141 39.2679 55.0047 39.6384 54.95 39.9946C54.8423 40.8036 54.7392 41.5779 54.6455 42.2761C54.5987 42.6276 54.5487 42.96 54.4815 43.2688C54.4183 43.5551 54.3353 43.8365 54.2332 44.1111C54.1458 44.3628 54.0677 44.586 54.0193 44.7966C53.9761 44.97 53.9546 45.1482 53.9553 45.327C53.9608 45.4808 53.9871 45.6332 54.0334 45.7798C54.0146 45.7443 53.9989 45.7072 53.9865 45.669C53.9495 45.5592 53.9284 45.4445 53.924 45.3286C53.9166 45.145 53.934 44.9612 53.9756 44.7824C54.0303 44.5473 54.0986 44.3158 54.1801 44.0889C54.2767 43.8154 54.355 43.5356 54.4144 43.2514C54.4784 42.9458 54.5268 42.6181 54.5706 42.2634C54.6611 41.5604 54.7626 40.791 54.8688 39.9804C54.8938 39.8014 54.9126 39.6225 54.9438 39.4452C54.9694 39.266 55.0288 39.0934 55.1187 38.937C55.1652 38.8601 55.2262 38.7934 55.2984 38.7407C55.3705 38.688 55.4522 38.6503 55.5388 38.6298C55.6229 38.6042 55.7125 38.603 55.7973 38.6266C55.8821 38.6501 55.9586 38.6973 56.0182 38.7628L56.026 38.7739V38.7866C56.0651 39.9059 56.0978 40.8654 56.1213 41.5557C56.1213 41.8898 56.1353 42.1573 56.1416 42.3473C56.1416 42.4344 56.1416 42.5056 56.1416 42.5595C56.1442 42.5847 56.1442 42.6102 56.1416 42.6355Z" fill="#EB996E"/>
<path d="M55.0485 38.994C55.013 38.9377 54.9846 38.877 54.9641 38.8135C54.8989 38.6448 54.8431 38.4725 54.7971 38.2974C54.7301 38.0375 54.6826 37.7729 54.655 37.5057C54.6357 37.3481 54.6325 37.189 54.6456 37.0307C54.6601 36.8539 54.7192 36.6837 54.8174 36.5368C54.9049 36.405 55.0336 36.3069 55.1828 36.2581L55.2124 36.2502L55.2281 36.2771C55.517 36.7932 55.7684 37.2492 55.9433 37.577L56.1479 37.9649C56.1759 38.0103 56.1979 38.0593 56.2134 38.1105C56.1785 38.0703 56.1481 38.0262 56.1229 37.9791L55.898 37.6039C55.7106 37.2872 55.4498 36.8328 55.1593 36.3183L55.2046 36.3373C55.074 36.3816 54.9614 36.4684 54.8845 36.5843C54.7946 36.7201 54.7408 36.8772 54.7283 37.0402C54.7127 37.195 54.7127 37.351 54.7283 37.5057C54.7519 37.7721 54.7931 38.0366 54.8517 38.2974C54.9017 38.519 54.9563 38.6963 54.9923 38.8183C55.0167 38.8748 55.0355 38.9337 55.0485 38.994Z" fill="#EB996E"/>
<path d="M54.5707 39.2536C54.5568 39.1929 54.5505 39.1307 54.5519 39.0684C54.5519 38.9322 54.5394 38.7644 54.5316 38.5665C54.5191 38.1422 54.5051 37.5564 54.4973 36.9088C54.4739 36.3552 54.4823 35.8006 54.5222 35.248C54.5418 35.0802 54.5774 34.9148 54.6284 34.754C54.6436 34.6934 54.6684 34.6356 54.7018 34.583C54.6445 34.8034 54.6033 35.0278 54.5785 35.2543C54.5394 35.6739 54.5785 36.2597 54.5785 36.9072C54.5785 37.5548 54.591 38.1406 54.5894 38.5649C54.5894 38.7644 54.5894 38.9322 54.5894 39.0684C54.5899 39.1307 54.5836 39.1928 54.5707 39.2536Z" fill="#EB996E"/>
<path d="M52.8854 44.575C52.8745 44.5655 52.9994 44.4166 53.1525 44.1459C53.2422 43.988 53.32 43.8234 53.3852 43.6535C53.4618 43.4446 53.5213 43.2296 53.5632 43.0107C53.5997 42.791 53.618 42.5686 53.6178 42.3457C53.6155 42.1638 53.5998 41.9823 53.571 41.8027C53.5195 41.4939 53.4539 41.3103 53.4679 41.3055C53.4925 41.3442 53.5115 41.3864 53.5241 41.4306C53.5682 41.5479 53.6027 41.6686 53.6272 41.7916C53.6654 41.9734 53.6874 42.1583 53.6928 42.3442C53.7065 42.8022 53.6251 43.258 53.4539 43.682C53.3849 43.854 53.3007 44.0193 53.2024 44.176C53.1373 44.2822 53.0637 44.3828 52.9823 44.4768C52.9245 44.5433 52.8901 44.5781 52.8854 44.575Z" fill="#EB996E"/>
<path d="M56.3836 43.5854L58.1123 44.1934C58.1123 44.1934 59.7645 43.3274 60.9029 44.1934C62.0413 45.0594 63.0298 47.3409 62.7175 48.2639C62.7175 48.2639 61.9367 49.2487 61.3339 49.3928C60.7311 49.5369 58.4121 48.9653 57.4455 48.7595C56.4788 48.5537 54.811 47.4549 54.811 47.4549L56.3836 43.5854Z" fill="#FFBE9D"/>
<path d="M56.5961 46.1645C56.5839 46.1127 56.5776 46.0595 56.5773 46.0062C56.5773 45.8875 56.5633 45.7466 56.5539 45.5819C56.5352 45.2241 56.5118 44.7301 56.5039 44.1823C56.4961 43.6345 56.5118 43.1389 56.543 42.7811C56.5586 42.6022 56.5789 42.4645 56.5961 42.3584C56.5999 42.3041 56.612 42.2507 56.632 42.2001C56.6445 42.2001 56.6179 42.4217 56.6008 42.7795C56.5836 43.1374 56.5773 43.6298 56.5851 44.176C56.593 44.7222 56.6039 45.194 56.6101 45.574C56.6101 45.7529 56.6101 45.8986 56.6101 45.9983C56.6143 46.0541 56.6096 46.1103 56.5961 46.1645Z" fill="#EB996E"/>
<path d="M62.2973 44.1206C62.1182 43.9319 61.9261 43.7563 61.7227 43.5949C61.2226 43.2156 60.6231 42.9948 59.9996 42.9601C59.376 42.9254 58.7563 43.0786 58.2184 43.4002C58.0001 43.5381 57.7914 43.691 57.5938 43.8577C57.635 43.7996 57.6827 43.7465 57.7359 43.6994C57.8764 43.567 58.0297 43.4493 58.1934 43.3479C58.7365 43.005 59.3708 42.8402 60.0097 42.8762C60.6486 42.9122 61.261 43.1471 61.7633 43.549C61.9152 43.6674 62.0544 43.8017 62.1787 43.9496C62.2247 44.0017 62.2645 44.059 62.2973 44.1206Z" fill="black"/>
<path d="M62.0756 42.6592C61.8523 42.4966 61.6106 42.3616 61.3557 42.2571C60.7291 42.0316 60.0486 42.0111 59.4099 42.1985C59.0586 42.2984 58.7204 42.4409 58.4027 42.6228C58.144 42.7735 57.8999 42.9484 57.6734 43.1453C57.4797 43.3131 57.3314 43.4619 57.2299 43.5617C57.1801 43.6194 57.1252 43.6724 57.0659 43.72C57.1065 43.6561 57.1536 43.5967 57.2065 43.5427C57.3414 43.3884 57.4847 43.242 57.6359 43.1041C57.8603 42.8986 58.1047 42.7167 58.3652 42.5611C58.6861 42.3709 59.0299 42.2235 59.3881 42.1225C60.0424 41.9287 60.7414 41.9582 61.3776 42.2064C61.5676 42.2834 61.7467 42.3856 61.9101 42.5104C61.9679 42.5531 62.0069 42.5943 62.0366 42.6196C62.0662 42.645 62.0756 42.6576 62.0756 42.6592Z" fill="black"/>
<path d="M62.0895 41.3926C62.0895 41.4084 61.7771 41.315 61.2805 41.247C60.9871 41.207 60.6912 41.188 60.3951 41.19C60.0324 41.194 59.6706 41.2268 59.3129 41.2881C58.956 41.3546 58.6046 41.4488 58.2619 41.5699C57.9826 41.6705 57.7107 41.7911 57.4483 41.9309C57.0001 42.1684 56.7472 42.3616 56.7378 42.3473C56.7908 42.2951 56.8489 42.2484 56.9111 42.208C56.9792 42.1537 57.0506 42.104 57.1251 42.0592C57.211 42.0037 57.3078 41.9388 57.4202 41.8787C57.6827 41.7315 57.9557 41.6045 58.2369 41.4987C58.5821 41.371 58.9373 41.2736 59.2988 41.2074C59.66 41.1454 60.0257 41.1142 60.392 41.114C60.6917 41.1155 60.9908 41.1404 61.2868 41.1884C61.4133 41.2042 61.5257 41.2343 61.6241 41.2549C61.7095 41.2724 61.794 41.2946 61.8771 41.3214C61.9498 41.3388 62.0208 41.3627 62.0895 41.3926Z" fill="black"/>
<path d="M48.8424 25.8894C48.9071 26.0368 48.9472 26.1941 48.9611 26.3549C49.0077 26.8089 48.9856 27.2676 48.8955 27.7149C48.8407 28.0359 48.7661 28.3532 48.6722 28.6648C48.5491 29.0274 48.3976 29.3795 48.2193 29.7177C47.8461 30.446 47.3776 31.2392 46.8341 32.0926L46.7717 32.1923V32.0736C46.7717 31.5131 46.7717 30.9257 46.7717 30.3162L46.8326 30.3462L45.3662 31.5321L45.3787 31.5131C45.0309 32.6688 44.8171 33.8616 44.7416 35.0675C44.5979 36.9943 44.7135 38.8372 44.8025 40.5092C44.8915 42.1811 44.9305 43.6899 44.9821 44.9565C45.0336 46.2231 45.0758 47.2459 45.1132 47.9536C45.1351 48.3051 45.1507 48.5774 45.1617 48.7674C45.1617 48.8577 45.1726 48.9257 45.1757 48.9796C45.1788 49.0334 45.1757 49.0524 45.1757 49.0524C45.1757 49.0524 45.1757 49.0286 45.1648 48.9811C45.1538 48.9336 45.1523 48.8592 45.1429 48.769C45.1257 48.5837 45.1039 48.3098 45.0805 47.9552C45.0336 47.2491 44.9789 46.2247 44.9243 44.9581C44.8696 43.6915 44.8025 42.1858 44.7275 40.5123C44.6526 38.8388 44.5167 36.9943 44.6604 35.0612C44.7393 33.8481 44.959 32.6487 45.3147 31.4878V31.4767H45.3241L46.7857 30.2877L46.8466 30.237V30.3162C46.8466 30.9257 46.8466 31.5131 46.8466 32.0736L46.7826 32.053C47.8555 30.3668 48.7284 28.9007 48.8627 27.7149C48.9555 27.2718 48.9839 26.8174 48.947 26.3659C48.9343 26.2473 48.9129 26.1299 48.883 26.0145C48.8518 25.929 48.8424 25.8894 48.8424 25.8894Z" fill="black"/>
<path d="M46.0412 46.3118H45.9913C45.8776 46.3192 45.7711 46.3711 45.6945 46.4567C45.6179 46.5422 45.5771 46.6546 45.5808 46.77C45.5844 46.8855 45.6323 46.995 45.7141 47.0754C45.796 47.1557 45.9054 47.2007 46.0194 47.2007C46.1333 47.2007 46.2428 47.1557 46.3247 47.0754C46.4065 46.995 46.4543 46.8855 46.458 46.77C46.4616 46.6546 46.4208 46.5422 46.3442 46.4567C46.2676 46.3711 46.1612 46.3192 46.0475 46.3118H46.0412Z" fill="white"/>
<path d="M46.0407 40.2099H45.9907C45.8774 40.2173 45.7714 40.2691 45.6951 40.3543C45.6187 40.4396 45.5781 40.5515 45.5818 40.6666C45.5854 40.7816 45.6331 40.8907 45.7146 40.9708C45.7962 41.0509 45.9053 41.0956 46.0188 41.0956C46.1323 41.0956 46.2414 41.0509 46.323 40.9708C46.4045 40.8907 46.4522 40.7816 46.4558 40.6666C46.4595 40.5515 46.4188 40.4396 46.3425 40.3543C46.2662 40.2691 46.1602 40.2173 46.0469 40.2099H46.0407Z" fill="white"/>
<path d="M45.9912 34.7509C46.1077 34.7586 46.2226 34.7191 46.3105 34.641C46.3983 34.5629 46.452 34.4527 46.4596 34.3345C46.4673 34.2163 46.4283 34.0998 46.3513 34.0107C46.2743 33.9217 46.1655 33.8673 46.0489 33.8595H45.9912C45.8744 33.8595 45.7624 33.9065 45.6798 33.9903C45.5972 34.074 45.5508 34.1876 45.5508 34.306C45.5508 34.4244 45.5972 34.5379 45.6798 34.6217C45.7624 34.7054 45.8744 34.7524 45.9912 34.7524V34.7509Z" fill="white"/>
<path d="M39.2404 18.7394C38.6939 18.1235 38.1473 17.5029 37.7428 16.7809C37.3384 16.059 37.1057 15.2151 37.2369 14.406C37.315 13.9311 37.5148 13.4719 37.5492 12.9811C37.5929 12.3161 37.3181 11.6211 37.5492 10.9989C37.9115 10.0236 39.2061 9.87317 39.99 9.20029C40.6006 8.67623 40.8973 7.82602 41.5688 7.38588C42.156 6.99957 42.9102 7.00906 43.5989 7.10723C44.2876 7.20539 44.9872 7.3843 45.6805 7.2893C46.174 7.2228 46.6394 7.02015 47.1219 6.89824C47.6044 6.77633 48.1463 6.73991 48.5758 6.99956C49.0052 7.25922 49.2488 7.87194 48.9662 8.28833C49.7688 7.9131 50.7886 8.54799 51.0088 9.41561C51.2289 10.2832 50.7886 11.2221 50.1077 11.7905C49.4268 12.3589 48.5461 12.6296 47.6794 12.7959C45.2214 13.2708 42.5526 13.0001 40.4335 11.6512" fill="black"/>
<path d="M47.8868 27.1196C47.7665 26.1696 47.6682 25.3891 47.6619 25.2909C47.6619 25.2909 50.7727 24.5816 50.6009 21.3929C50.5181 19.8508 50.0933 16.6907 49.6748 13.8361C49.4598 12.3562 48.7025 11.0129 47.5541 10.0739C46.4057 9.13495 44.9504 8.66924 43.4783 8.76965L43.166 8.78864C39.91 9.20504 38.4374 12.2417 38.9371 15.5317L40.6955 26.5623C40.6955 26.5623 41.4451 29.0021 43.0489 29.4248L45.079 32.357L45.4132 31.0904L46.9217 29.7573C47.2108 29.4126 47.4606 29.0361 47.6666 28.6347C47.8969 28.1662 47.974 27.6355 47.8868 27.1196Z" fill="#FFBE9D"/>
<path d="M47.6636 25.2466C47.6636 25.2466 45.6881 25.5442 43.4878 24.3425C43.4878 24.3425 44.609 26.5702 47.726 26.0715L47.6636 25.2466Z" fill="#EB996E"/>
<path d="M48.6649 16.5782C48.6737 16.6969 48.6365 16.8143 48.5613 16.9057C48.4861 16.997 48.3787 17.055 48.262 17.0675C48.2052 17.0759 48.1473 17.0727 48.0917 17.0581C48.0361 17.0434 47.984 17.0176 47.9384 16.9822C47.8928 16.9468 47.8548 16.9024 47.8264 16.8518C47.798 16.8012 47.7799 16.7453 47.7732 16.6875C47.7628 16.5679 47.7995 16.449 47.8753 16.3567C47.9511 16.2644 48.0598 16.2063 48.1777 16.1951C48.2346 16.1869 48.2926 16.1904 48.3482 16.2053C48.4038 16.2203 48.4558 16.2464 48.5013 16.2821C48.5467 16.3179 48.5846 16.3625 48.6127 16.4134C48.6408 16.4642 48.6586 16.5203 48.6649 16.5782Z" fill="black"/>
<path d="M49.1033 15.4478C49.0517 15.5111 48.6941 15.2784 48.2116 15.3132C47.729 15.3481 47.3964 15.6156 47.334 15.5618C47.3074 15.5381 47.3574 15.4272 47.5042 15.3022C47.7031 15.1409 47.9464 15.0463 48.2006 15.0314C48.4521 15.0129 48.7028 15.0767 48.9159 15.2135C49.072 15.3148 49.1282 15.4193 49.1033 15.4478Z" fill="black"/>
<path d="M44.1014 16.9092C44.1106 17.0277 44.0735 17.1452 43.9982 17.2364C43.9229 17.3275 43.8153 17.3851 43.6986 17.3968C43.6418 17.4055 43.5839 17.4025 43.5284 17.388C43.4728 17.3736 43.4207 17.3479 43.3751 17.3126C43.3295 17.2773 43.2913 17.2331 43.2629 17.1825C43.2345 17.132 43.2165 17.0762 43.2098 17.0184C43.201 16.9 43.2379 16.7828 43.3128 16.6915C43.3877 16.6002 43.4947 16.542 43.6111 16.5292C43.668 16.5207 43.726 16.5239 43.7817 16.5385C43.8374 16.5532 43.8896 16.5789 43.9353 16.6144C43.981 16.6498 44.0192 16.6941 44.0478 16.7447C44.0763 16.7954 44.0946 16.8513 44.1014 16.9092Z" fill="black"/>
<path d="M44.3623 15.8611C44.3092 15.9244 43.9531 15.6916 43.4706 15.7265C42.988 15.7613 42.6492 16.0289 42.5929 15.9719C42.5648 15.9481 42.6148 15.8373 42.7616 15.7122C42.9612 15.5513 43.205 15.4567 43.4596 15.4415C43.7106 15.4232 43.9607 15.487 44.1733 15.6236C44.3295 15.7281 44.3872 15.8326 44.3623 15.8611Z" fill="black"/>
<path d="M46.3532 19.3743C46.3532 19.3458 46.6468 19.273 47.134 19.1764C47.2558 19.1558 47.3714 19.1226 47.387 19.0371C47.3885 18.9069 47.3509 18.7793 47.2792 18.6713L46.8514 17.7435C46.2564 16.4231 45.816 15.3322 45.8691 15.3085C45.9222 15.2848 46.4469 16.336 47.0434 17.6581L47.4557 18.5922C47.5431 18.7377 47.5773 18.9097 47.5525 19.0782C47.5374 19.1234 47.5124 19.1645 47.4794 19.1985C47.4464 19.2325 47.4063 19.2585 47.362 19.2746C47.2949 19.2982 47.2251 19.3131 47.1543 19.3189C46.6608 19.379 46.3579 19.4012 46.3532 19.3743Z" fill="black"/>
<path d="M44.359 13.9326C44.32 14.0704 43.8343 14.0387 43.2659 14.1464C42.6974 14.254 42.2555 14.4424 42.1727 14.3284C42.1353 14.273 42.2071 14.1432 42.3836 14.0007C42.6199 13.8268 42.8921 13.7094 43.1795 13.6573C43.467 13.6052 43.7624 13.6198 44.0436 13.6999C44.2638 13.7711 44.3762 13.8693 44.359 13.9326Z" fill="black"/>
<path d="M48.8316 14.0419C48.7551 14.159 48.4147 14.0672 48.0133 14.0878C47.612 14.1084 47.2794 14.2129 47.1935 14.102C47.156 14.0482 47.2028 13.9326 47.3496 13.8171C47.5404 13.6779 47.7675 13.5992 48.0023 13.5907C48.2372 13.5823 48.4692 13.6445 48.6692 13.7696C48.8129 13.8741 48.866 13.9786 48.8316 14.0419Z" fill="black"/>
<path d="M39.3573 17.8829C39.3026 17.8639 37.1554 17.3826 37.3678 19.5564C37.5802 21.7302 39.9007 21.0209 39.9007 20.9591C39.9007 20.8974 39.3573 17.8829 39.3573 17.8829Z" fill="#FFBE9D"/>
<path d="M38.9511 20.2451C38.9402 20.2451 38.9168 20.2752 38.8558 20.31C38.7712 20.3579 38.6715 20.3704 38.5779 20.3448C38.3421 20.2831 38.1094 19.9379 38.0672 19.5532C38.0439 19.3674 38.0615 19.1787 38.1188 19.0006C38.1328 18.9311 38.1631 18.8661 38.2071 18.811C38.2511 18.7559 38.3076 18.7123 38.3717 18.684C38.4137 18.6683 38.4597 18.6679 38.5019 18.6829C38.5441 18.698 38.5798 18.7275 38.6029 18.7663C38.6372 18.8249 38.6279 18.8692 38.6388 18.8708C38.6497 18.8724 38.6809 18.8312 38.656 18.7426C38.6384 18.6898 38.6037 18.6446 38.5576 18.6143C38.5258 18.5927 38.4901 18.5777 38.4526 18.57C38.4151 18.5624 38.3765 18.5624 38.339 18.57C38.2528 18.5968 38.1749 18.6455 38.1126 18.7114C38.0502 18.7774 38.0056 18.8584 37.9829 18.9468C37.9097 19.1442 37.8856 19.3568 37.9126 19.5659C37.9688 20.0028 38.225 20.3907 38.5482 20.4493C38.6076 20.4608 38.6688 20.4585 38.7272 20.4426C38.7856 20.4267 38.8398 20.3976 38.8855 20.3575C38.9527 20.2973 38.9636 20.2482 38.9511 20.2451Z" fill="#EB996E"/>
<path d="M49.5175 10.8675C49.3707 11.7335 47.6435 12.5267 46.2037 12.484C44.881 12.4444 44.2267 11.7794 43.2663 11.306C42.6573 11.0068 42.6573 11.0068 41.8312 11.1477C41.1644 11.2569 40.8177 12.0565 40.4429 12.6265C41.1566 14.2097 40.8677 16.04 40.5647 17.7499C40.5517 17.9427 40.4753 18.1255 40.3477 18.2692C40.1072 18.4845 39.723 18.3563 39.4794 18.1362C39.0999 17.7831 38.9266 17.2606 38.8032 16.754C38.5006 15.6017 38.4284 14.3996 38.5908 13.2186C38.755 12.0318 39.2589 10.9198 40.04 10.0204C41.0616 8.92898 42.4614 8.28243 43.9441 8.21709C45.4194 8.16348 46.8738 8.58227 48.1011 9.41403C48.6695 9.79243 49.1942 10.2595 49.5222 10.8659" fill="black"/>
<path d="M46.6702 20.4699L45.5771 19.9538C45.5172 19.9178 45.4483 19.9002 45.3788 19.9031C45.3019 19.9206 45.2344 19.967 45.1898 20.0329C45.0617 20.1884 44.9818 20.3788 44.9601 20.5803C44.9384 20.7817 44.976 20.9851 45.068 21.1649C45.1681 21.3401 45.3254 21.4743 45.5128 21.5443C45.7001 21.6143 45.9057 21.6156 46.094 21.5481C46.4813 21.3898 46.6687 20.929 46.6999 20.5047L46.6702 20.4699Z" fill="#EB996E"/>
<path d="M46.1283 21.6304C46.1283 21.6399 46.0768 21.6716 45.9721 21.6954C45.8156 21.7238 45.6545 21.7119 45.5037 21.6605C45.2731 21.5818 45.0798 21.4186 44.9618 21.203C44.8871 21.0716 44.8423 20.9249 44.8307 20.7737C44.8191 20.6225 44.8409 20.4705 44.8946 20.329C44.9496 20.1823 45.036 20.0498 45.1476 19.9411C45.2018 19.8892 45.2615 19.8435 45.3256 19.8049C45.3641 19.7817 45.4075 19.7682 45.4521 19.7654C45.4955 19.7636 45.5387 19.7717 45.5786 19.7891C45.6369 19.8189 45.6938 19.8517 45.7488 19.8873L45.8972 19.9807L46.1642 20.1485C46.4875 20.3575 46.6827 20.4968 46.6717 20.5158C46.6608 20.5348 46.4453 20.4335 46.1064 20.2498L45.83 20.0915L45.6739 20.0044C45.6208 19.9775 45.5646 19.9411 45.5177 19.9221C45.4985 19.9127 45.477 19.909 45.4558 19.9112C45.4346 19.9135 45.4144 19.9216 45.3975 19.9348C45.3456 19.9679 45.2974 20.0067 45.2538 20.0503C45.1611 20.1439 45.0888 20.2561 45.0414 20.3797C44.9961 20.4996 44.9768 20.628 44.9849 20.7561C44.993 20.8843 45.0283 21.0091 45.0883 21.1222C45.1856 21.3117 45.3453 21.4607 45.5396 21.5434C45.674 21.5983 45.8178 21.6257 45.9628 21.6241C46.0658 21.6289 46.1236 21.6194 46.1283 21.6304Z" fill="black"/>
<path d="M45.7832 16.6337C45.7676 16.4482 45.7389 16.264 45.6973 16.0827C45.6199 15.7795 45.4809 15.4961 45.2891 15.2507C45.0973 15.0052 44.857 14.8032 44.5836 14.6575C44.3102 14.5118 44.0098 14.4258 43.7016 14.4048C43.3934 14.3839 43.0844 14.4285 42.7942 14.5359C42.5942 14.6086 42.4063 14.7116 42.2367 14.8414C42.056 14.9727 41.8977 15.1331 41.7682 15.3164C41.4899 15.6979 41.3397 16.1599 41.3397 16.6345C41.3397 17.109 41.4899 17.571 41.7682 17.9525C41.8977 18.1358 42.056 18.2963 42.2367 18.4275C42.4063 18.5573 42.5942 18.6603 42.7942 18.7331C43.0844 18.8394 43.3933 18.8833 43.7011 18.8619C44.009 18.8405 44.309 18.7542 44.5822 18.6087C44.8553 18.4631 45.0956 18.2615 45.2875 18.0166C45.4795 17.7717 45.6191 17.4889 45.6973 17.1862C45.7387 17.0054 45.7674 16.8218 45.7832 16.6368C45.7849 16.6489 45.7849 16.6612 45.7832 16.6733C45.7832 16.7018 45.7832 16.7382 45.7832 16.7809C45.7845 16.8398 45.7803 16.8986 45.7707 16.9567C45.7619 17.0367 45.7479 17.116 45.7285 17.1941C45.679 17.4097 45.5974 17.6163 45.4864 17.8069C45.2197 18.2691 44.8017 18.6219 44.305 18.8041C43.8083 18.9864 43.2644 18.9864 42.7677 18.8043C42.5607 18.7293 42.3664 18.6225 42.1914 18.4877C42.005 18.3522 41.8415 18.187 41.7073 17.9984C41.4189 17.6032 41.2632 17.1245 41.2632 16.6329C41.2632 16.1412 41.4189 15.6625 41.7073 15.2673C41.8405 15.0784 42.0036 14.9132 42.1899 14.7781C42.3648 14.6433 42.5592 14.5365 42.7661 14.4614C43.1488 14.3221 43.5613 14.2893 43.9607 14.3665C44.277 14.4278 44.5766 14.557 44.8394 14.7454C45.1023 14.9338 45.3224 15.1771 45.4849 15.4589C45.5959 15.6495 45.6775 15.8561 45.7269 16.0716C45.7463 16.1497 45.7604 16.2291 45.7691 16.3091C45.7788 16.3671 45.783 16.426 45.7816 16.4848C45.7816 16.5276 45.7816 16.564 45.7816 16.5925C45.7841 16.6061 45.7847 16.6199 45.7832 16.6337Z" fill="black"/>
<path d="M51.1303 16.4199C51.115 16.2393 51.0873 16.06 51.0475 15.8832C50.9223 15.4044 50.6418 14.9822 50.2511 14.6847C49.9849 14.4794 49.6745 14.3411 49.3454 14.281C48.9678 14.2107 48.5785 14.244 48.2179 14.3775C48.0239 14.4487 47.8413 14.5485 47.676 14.6736C47.5021 14.8027 47.3493 14.9587 47.2231 15.1359C46.9532 15.5081 46.8076 15.958 46.8076 16.4199C46.8076 16.8819 46.9532 17.3318 47.2231 17.704C47.3489 17.881 47.5018 18.0366 47.676 18.1647C47.8409 18.2909 48.0235 18.3913 48.2179 18.4623C48.5787 18.5951 48.9677 18.6284 49.3454 18.5589C49.6745 18.4988 49.9849 18.3604 50.2511 18.1552C50.6418 17.8577 50.9223 17.4355 51.0475 16.9567C51.0873 16.7799 51.115 16.6006 51.1303 16.4199C51.134 16.4668 51.134 16.514 51.1303 16.5609C51.1309 16.6186 51.1267 16.6764 51.1178 16.7334C51.1095 16.8113 51.0959 16.8886 51.0772 16.9646C50.9777 17.3792 50.763 17.7563 50.4585 18.0509C50.154 18.3456 49.7726 18.5455 49.3594 18.627C48.9698 18.7016 48.5676 18.6693 48.1944 18.5336C47.7817 18.3812 47.4223 18.1092 47.1607 17.7515C46.8797 17.366 46.728 16.8993 46.728 16.4199C46.728 15.9406 46.8797 15.4739 47.1607 15.0884C47.4223 14.7307 47.7817 14.4587 48.1944 14.3063C48.5676 14.1706 48.9698 14.1383 49.3594 14.2129C49.7726 14.2944 50.154 14.4943 50.4585 14.789C50.763 15.0836 50.9777 15.4607 51.0772 15.8753C51.0959 15.9513 51.1095 16.0286 51.1178 16.1065C51.1267 16.1635 51.1309 16.2213 51.1303 16.279C51.134 16.3259 51.134 16.3731 51.1303 16.4199Z" fill="black"/>
<path d="M46.7717 15.9196C46.7623 15.9275 46.7108 15.8848 46.6155 15.8389C46.4927 15.7796 46.358 15.7498 46.222 15.7518C46.0863 15.7538 45.953 15.7885 45.8332 15.8531C45.7395 15.9022 45.6895 15.9481 45.677 15.9386C45.6645 15.9291 45.7051 15.869 45.7988 15.8025C45.9222 15.7172 46.0675 15.6705 46.2168 15.668C46.3661 15.6654 46.5128 15.7072 46.639 15.7882C46.7342 15.8515 46.7717 15.9133 46.7717 15.9196Z" fill="black"/>
<path d="M41.4387 16.3107C41.1297 16.5952 40.8032 16.8597 40.4611 17.1023C40.1339 17.3661 39.7908 17.6088 39.4336 17.829C39.7423 17.5434 40.0694 17.2789 40.4127 17.0374C40.7389 16.773 41.0817 16.5303 41.4387 16.3107Z" fill="black"/>
<g opacity="0.3">
<path opacity="0.3" d="M39.5884 26.6145C39.3713 28.763 40.1771 31.0318 41.8777 32.3332C42.0105 32.4361 42.1776 32.5375 42.3353 32.4789C42.4405 32.4272 42.5245 32.3398 42.5727 32.2319C43.0489 31.3977 43.2276 30.4227 43.0786 29.4707C42.81 30.1895 42.5789 30.8956 42.3072 31.6461C40.8283 30.7341 39.9007 28.7962 39.5884 26.6145Z" fill="black"/>
</g>
<path opacity="0.3" d="M45.3462 31.5004L46.5955 31.0381L46.8016 33.1771C46.8016 33.1771 48.1477 30.6898 48.7052 29.5562C49.2627 28.4226 48.9754 26.4182 48.9754 26.4182C48.9754 26.4182 49.1737 28.1598 47.8261 30.3874L46.8079 32.0657V30.3082L45.3462 31.5004Z" fill="black"/>
<g opacity="0.3">
<path opacity="0.3" d="M30.8432 42.3711C30.2737 42.1258 29.648 42.0463 29.0364 42.1415C28.3847 42.1955 27.7612 42.4348 27.2375 42.8318C26.7315 43.245 26.3895 43.8973 26.4566 44.5528L26.5191 44.5607C26.9548 43.3669 27.8199 42.5025 28.9365 42.3932C30.0531 42.284 31.1415 42.7906 31.9036 43.6218C31.8208 43.0012 31.3929 42.6355 30.8432 42.3711Z" fill="black"/>
</g>
<g opacity="0.3">
<path opacity="0.3" d="M62.3784 43.5854C61.9456 43.1351 61.3798 42.8399 60.7668 42.7447C60.2328 42.6541 59.6855 42.6863 59.1655 42.839C58.6454 42.9916 58.1659 43.2608 57.7622 43.6266L57.9996 43.4303C58.6034 43.0616 59.2967 42.8708 60.0016 42.8793C60.709 42.8916 61.3874 43.1665 61.9083 43.6519C62.3768 44.1016 62.6563 44.7111 62.9234 45.3048C62.9666 44.9951 62.94 44.6795 62.8456 44.3817C62.7512 44.0839 62.5915 43.8116 62.3784 43.5854Z" fill="black"/>
</g>
<path d="M54.3379 33.6584C54.3506 33.5991 54.3694 33.5412 54.3941 33.4858C54.4425 33.3608 54.5019 33.2072 54.5706 33.0251C54.7267 32.6372 54.9297 32.1021 55.1484 31.5052C55.367 30.9083 55.5559 30.3652 55.6918 29.9726L55.848 29.5055C55.8647 29.4472 55.8878 29.3909 55.9167 29.3377C55.9118 29.3984 55.8987 29.458 55.8776 29.515C55.848 29.629 55.8011 29.7905 55.7402 29.99C55.6184 30.389 55.4373 30.94 55.2186 31.5337C55 32.1274 54.7829 32.6657 54.6174 33.0473C54.5362 33.2389 54.4613 33.3924 54.416 33.4985C54.3965 33.5549 54.3703 33.6086 54.3379 33.6584Z" fill="black"/>
<path d="M34.6508 33.8136C34.6289 33.8136 34.4587 33.0647 34.2713 32.1306C34.0839 31.1965 33.9496 30.4444 33.9668 30.4317C33.984 30.4191 34.1573 31.1806 34.3447 32.1147C34.5321 33.0489 34.6727 33.8088 34.6508 33.8136Z" fill="black"/>
<path d="M34.3557 43.2323C34.4057 43.2577 33.7842 38.2989 33.7842 38.2989C33.7842 38.2989 34.1761 34.5355 34.3963 34.3614V33.033C34.3963 33.033 35.0038 32.661 35.1662 33.2626C35.1662 33.2626 35.705 32.7876 35.7909 33.9165C35.8767 35.0453 35.9049 36.198 35.9049 36.198L37.1026 39.2346L37.2994 39.336C37.2994 39.336 37.5571 36.9611 37.707 36.6064C37.8569 36.2518 37.9599 35.4047 38.5268 35.533C39.0937 35.6612 39.1421 36.1362 39.0406 36.912C38.9391 37.6878 38.811 38.4953 38.8594 38.9924C38.9078 39.4895 39.1312 40.5962 39.0625 41.4734C38.9937 42.3505 38.519 43.2751 38.0224 43.9242C37.5258 44.5734 36.5748 45.9175 36.0595 46.3213C35.8924 46.4638 34.3557 43.2323 34.3557 43.2323Z" fill="#FFBE9D"/>
<path d="M34.9613 39.1966C34.9535 39.1261 34.9535 39.055 34.9613 38.9845C34.9707 38.8262 34.9847 38.6393 35.0003 38.4082C35.0363 37.9221 35.0925 37.2508 35.1565 36.5083C35.1909 36.1394 35.2237 35.7879 35.2533 35.4649C35.2712 35.3161 35.2712 35.1657 35.2533 35.0168C35.2367 34.8894 35.1822 34.7702 35.0972 34.6749C35.0348 34.6066 34.9591 34.5521 34.875 34.5148C34.791 34.4775 34.7002 34.4581 34.6084 34.458C34.5397 34.4612 34.4713 34.4697 34.4038 34.4833C34.4191 34.4724 34.436 34.4639 34.4538 34.458C34.5039 34.4389 34.5565 34.4277 34.6099 34.4247C34.7084 34.419 34.8069 34.4349 34.8988 34.4712C34.9907 34.5075 35.0738 34.5635 35.1425 34.6353C35.2369 34.7381 35.2975 34.8681 35.3158 35.0073C35.3354 35.1613 35.3354 35.3172 35.3158 35.4712C35.2877 35.7879 35.2565 36.1473 35.2252 36.5162C35.1581 37.2572 35.0925 37.9269 35.041 38.4161L34.9769 38.9908C34.9775 39.0597 34.9723 39.1286 34.9613 39.1966Z" fill="#EB996E"/>
<path d="M35.605 37.1685C35.5178 37.289 35.4464 37.4204 35.3926 37.5596C35.2974 37.9101 35.231 38.2681 35.1943 38.6298C35.1287 39.0541 35.0662 39.4373 35.0163 39.7144C34.9981 39.8655 34.9657 40.0144 34.9194 40.1593C34.92 40.0069 34.9336 39.8549 34.96 39.7049C34.9944 39.4262 35.049 39.0415 35.1162 38.6172C35.1833 38.1929 35.2271 37.805 35.3426 37.539C35.3837 37.4347 35.4412 37.338 35.5128 37.2524C35.5644 37.1891 35.6019 37.1653 35.605 37.1685Z" fill="#EB996E"/>
<path d="M35.1641 33.1977C35.1858 33.2481 35.2 33.3014 35.2062 33.356C35.2281 33.4574 35.2546 33.6046 35.2843 33.7883C35.3436 34.154 35.4092 34.6622 35.4514 35.2274C35.4936 35.7926 35.5014 36.3056 35.4951 36.6761C35.4951 36.8613 35.4873 37.0117 35.4795 37.1147C35.4808 37.1681 35.4745 37.2214 35.4608 37.273C35.4418 37.0741 35.434 36.8743 35.4373 36.6745C35.4295 36.304 35.4108 35.7942 35.3702 35.2322C35.3296 34.6701 35.2734 34.1619 35.2281 33.7946C35.1951 33.5971 35.1737 33.3978 35.1641 33.1977Z" fill="#EB996E"/>
<path d="M38.6202 37.8461C38.561 37.8849 38.4933 37.9083 38.4231 37.9144C38.3528 37.9205 38.2822 37.909 38.2174 37.881C37.9878 37.8113 37.8816 37.6324 37.905 37.6245C38.0126 37.6937 38.126 37.753 38.2439 37.8018C38.3679 37.8271 38.4938 37.842 38.6202 37.8461Z" fill="#EB996E"/>
<path d="M34.4226 42.6149L31.2587 43.9638H29.3723C29.3723 43.9638 27.5077 44.5544 27.2204 46.3276C26.9331 48.1009 26.8925 49.0112 27.7123 49.2313C28.5322 49.4514 30.848 49.4751 31.9958 49.0888C33.1436 48.7025 36.1513 46.239 36.1513 46.239L36.4402 44.4594L34.4226 42.6149Z" fill="#FFBE9D"/>
<path d="M35.1644 44.575C35.1644 44.575 35.1285 44.548 35.0738 44.491C34.9985 44.4083 34.9301 44.3193 34.8692 44.2251C34.6712 43.9119 34.5221 43.5696 34.4273 43.2102C34.3293 42.854 34.264 42.4893 34.2321 42.1209C34.211 41.9688 34.2069 41.8148 34.2196 41.6618C34.2534 41.8103 34.2764 41.9611 34.2883 42.113C34.3365 42.4759 34.409 42.8351 34.5054 43.188C34.5997 43.5402 34.7382 43.8786 34.9176 44.195C35.0598 44.4341 35.1753 44.5639 35.1644 44.575Z" fill="#EB996E"/>
<path d="M36.5435 45.137C36.6273 44.9151 36.6875 44.6848 36.7231 44.4499C36.7939 43.8771 36.6415 43.2988 36.2983 42.8381C36.1062 42.5658 35.8892 42.3283 35.7065 42.0972C35.5401 41.8956 35.3965 41.6757 35.2786 41.4417C35.2011 41.282 35.1485 41.1111 35.1224 40.9351C35.1128 40.871 35.1128 40.8059 35.1224 40.7419C35.159 40.9763 35.2317 41.2033 35.3379 41.4148C35.4609 41.6407 35.6069 41.853 35.7736 42.0481C35.9563 42.2729 36.175 42.5104 36.3717 42.7891C36.5631 43.0504 36.6978 43.3499 36.7668 43.6678C36.82 43.9283 36.8269 44.1964 36.7871 44.4594C36.7609 44.6348 36.7126 44.8062 36.6434 44.9692C36.6185 45.0262 36.595 45.0689 36.5794 45.0974C36.5638 45.1259 36.5451 45.1386 36.5435 45.137Z" fill="#EB996E"/>
<path d="M31.6632 37.4107C31.3826 36.9492 31.1251 36.4736 30.8918 35.9858C30.4858 35.1942 30.1735 34.5356 30.1922 34.5245C30.4729 34.986 30.7303 35.4615 30.9636 35.9494C31.2213 36.4241 31.4548 36.9118 31.6632 37.4107Z" fill="white"/>
<path d="M36.7778 31.6334C36.911 31.2275 37.0701 30.8309 37.2541 30.446C37.4139 30.0505 37.598 29.6655 37.8054 29.2934C37.6714 29.699 37.5123 30.0956 37.3291 30.4808C37.1697 30.8765 36.9856 31.2615 36.7778 31.6334Z" fill="white"/>
<path d="M41.795 35.3826C41.5359 35.1298 41.2958 34.8578 41.0767 34.5688C40.8378 34.2968 40.6191 34.0074 40.4224 33.7028C40.6817 33.9548 40.9213 34.2269 41.1391 34.5165C41.3787 34.7883 41.598 35.0777 41.795 35.3826Z" fill="white"/>
<path d="M40.6411 40.5392C40.7996 40.2498 40.9802 39.9735 41.1814 39.7128C41.3626 39.4372 41.5658 39.1772 41.7889 38.9354C41.6309 39.2251 41.4502 39.5015 41.2486 39.7619C41.0684 40.0381 40.8652 40.2982 40.6411 40.5392Z" fill="white"/>
<path d="M39.0886 47.8238C39.0157 47.7258 38.9544 47.6196 38.9059 47.5071C38.8028 47.3045 38.6701 47.0211 38.5358 46.7029C38.4015 46.3846 38.2938 46.0885 38.2235 45.8748C38.1768 45.7609 38.1432 45.6419 38.1235 45.5202C38.1879 45.6252 38.2402 45.7373 38.2797 45.8542L38.6154 46.6696C38.7451 46.972 38.8606 47.2459 38.9621 47.4818C39.0167 47.5907 39.0591 47.7054 39.0886 47.8238Z" fill="white"/>
<path d="M43.4923 44.7269C43.1729 44.7055 42.8559 44.6573 42.5444 44.5829C42.2263 44.5351 41.9129 44.4599 41.6074 44.3581C42.2412 44.4273 42.8681 44.5507 43.4814 44.7269H43.4923Z" fill="white"/>
<path d="M46.9282 37.9205C47.208 37.5531 47.5094 37.2031 47.8308 36.8724C48.133 36.5221 48.4553 36.1901 48.7959 35.8781C48.515 36.2456 48.2131 36.5961 47.8917 36.9278C47.5896 37.2772 47.2679 37.6086 46.9282 37.9205Z" fill="white"/>
<path d="M50.3634 46.9973C50.3462 47.0132 49.8418 46.4195 49.2359 45.6753C48.63 44.9312 48.1537 44.3137 48.1709 44.2995C48.188 44.2852 48.6924 44.8774 49.2984 45.6215C49.9043 46.3656 50.3774 46.9831 50.3634 46.9973Z" fill="white"/>
<path d="M29.0007 43.1294C29.0117 43.1516 28.551 43.3891 28.0481 43.7802C27.5453 44.1712 27.1955 44.5575 27.1768 44.5401C27.2335 44.4399 27.3052 44.3491 27.3891 44.271C27.5762 44.0685 27.7799 43.8826 27.9982 43.7152C28.2155 43.5471 28.4464 43.3977 28.6884 43.2688C28.7853 43.2072 28.8905 43.1602 29.0007 43.1294Z" fill="white"/>
<path d="M30.2875 39.6273C30.1883 39.8513 30.0653 40.0637 29.9206 40.2606C29.7973 40.4727 29.6512 40.6702 29.4849 40.8496C29.5844 40.6257 29.7074 40.4134 29.8518 40.2163C29.9748 40.004 30.121 39.8064 30.2875 39.6273Z" fill="white"/>
<path d="M33.1858 43.0661C32.9357 42.663 32.8288 42.1855 32.8828 41.7124C32.9062 41.7124 32.914 42.0291 32.9999 42.398C33.0858 42.7669 33.2076 43.055 33.1858 43.0661Z" fill="white"/>
<path d="M33.6153 32.1543C33.4212 32.223 33.2191 32.2661 33.0141 32.2826C32.8125 32.3255 32.6061 32.3409 32.4004 32.3285C32.5951 32.2599 32.7977 32.2168 33.0032 32.2002C33.2044 32.1582 33.4102 32.1428 33.6153 32.1543Z" fill="white"/>
<path d="M35.7919 28.2389C35.4555 28.4913 35.088 28.6978 34.6987 28.8532C34.8585 28.7158 35.0355 28.6003 35.225 28.5097C35.4019 28.3955 35.5924 28.3045 35.7919 28.2389Z" fill="white"/>
<path d="M41.9154 29.8934C41.6947 29.6659 41.4931 29.4202 41.3126 29.1588C41.1122 28.9133 40.9325 28.6511 40.7754 28.3751C41.1979 28.8469 41.5793 29.3549 41.9154 29.8934Z" fill="white"/>
<path d="M49.6874 33.8294C49.257 33.3993 48.9332 32.8719 48.7427 32.2905C48.7661 32.281 48.9332 32.6499 49.1955 33.0726C49.4579 33.4953 49.7062 33.8136 49.6874 33.8294Z" fill="white"/>
<path d="M52.6544 34.8205C52.4659 35.3771 52.2254 35.9142 51.936 36.4244C52.0193 36.1422 52.1275 35.8683 52.2593 35.6058C52.3662 35.3319 52.4984 35.069 52.6544 34.8205Z" fill="white"/>
<path d="M53.07 30.7151C52.7861 30.4357 52.5221 30.1362 52.2799 29.819C52.0167 29.5196 51.7741 29.2022 51.5537 28.8691C52.1001 29.4486 52.6068 30.0654 53.07 30.7151Z" fill="white"/>
<path d="M48.5382 27.3808C48.4887 27.1285 48.4652 26.8717 48.4679 26.6145C48.4444 26.3578 48.448 26.0993 48.4789 25.8435C48.5283 26.0957 48.5519 26.3525 48.5491 26.6098C48.5737 26.8664 48.57 27.125 48.5382 27.3808Z" fill="white"/>
<path d="M52.2374 27.1734C51.9209 27.2575 51.5981 27.3152 51.2723 27.346C50.9505 27.4033 50.6246 27.4335 50.2979 27.4362C50.6144 27.3521 50.9371 27.2944 51.2629 27.2636C51.5847 27.2063 51.9107 27.1761 52.2374 27.1734Z" fill="white"/>
<path d="M58.0518 31.5068C57.8349 31.146 57.6409 30.7716 57.4708 30.3858C57.2777 30.0115 57.1087 29.6249 56.9648 29.2285C57.1826 29.589 57.3772 29.9634 57.5473 30.3494C57.7398 30.7238 57.9083 31.1104 58.0518 31.5068Z" fill="white"/>
<path d="M57.0786 35.2512C57.144 34.6465 57.2621 34.0488 57.4315 33.4653C57.4127 33.769 57.3672 34.0705 57.2957 34.3661C57.2501 34.6672 57.1774 34.9635 57.0786 35.2512Z" fill="white"/>
<path d="M59.7707 38.2023C59.5886 37.8078 59.4321 37.4016 59.3022 36.9864C59.1474 36.5804 59.0186 36.1648 58.9165 35.742C59.0975 36.1375 59.254 36.5442 59.385 36.9595C59.5392 37.3652 59.668 37.7803 59.7707 38.2023Z" fill="white"/>
<path d="M59.3944 39.9297C59.1156 39.8871 58.8477 39.7898 58.6058 39.6431C58.3517 39.5194 58.1249 39.3449 57.939 39.1301C57.9546 39.1111 58.2419 39.3518 58.6448 39.5703C59.0477 39.7888 59.4022 39.9059 59.3944 39.9297Z" fill="white"/>
<path d="M62.8568 43.8657C62.6465 43.52 62.4831 43.1472 62.3711 42.7574C62.5813 43.103 62.7447 43.4758 62.8568 43.8657Z" fill="white"/>
<path d="M42.4321 49.3564C42.3655 49.128 42.3246 48.8927 42.3103 48.655C42.2707 48.4203 42.2571 48.1819 42.2697 47.9441C42.341 48.1738 42.3845 48.4115 42.3993 48.6518C42.4367 48.8847 42.4477 49.121 42.4321 49.3564Z" fill="white"/>
<path d="M53.04 49.0841C53.0472 48.8523 53.0813 48.6222 53.1415 48.3985C53.1767 48.1694 53.238 47.9452 53.3242 47.7304C53.3171 47.9623 53.2825 48.1924 53.2212 48.4159C53.1869 48.6451 53.1261 48.8694 53.04 49.0841Z" fill="white"/>
<path d="M56.7305 16.9709L57.8236 14.9412C57.3204 14.0783 57.0566 13.0937 57.06 12.0913C57.06 9.08313 59.3681 6.66075 62.2133 6.66075C65.0586 6.66075 67.3667 9.09104 67.3667 12.0913C67.3667 15.0916 65.0602 17.5203 62.2133 17.5203C61.0642 17.5204 59.9501 17.1189 59.0588 16.3835L56.7305 16.9709Z" fill="#FAFAFA"/>
<path d="M56.7305 16.9709L59.0729 16.4089H59.0963L59.0823 16.3883L59.0588 16.412C59.3852 16.6775 59.7411 16.9033 60.1192 17.0849C60.5679 17.2959 61.0445 17.4394 61.534 17.5108C61.8044 17.55 62.0778 17.5643 62.3507 17.5535C62.4897 17.5456 62.6334 17.5409 62.7771 17.5282L63.2128 17.4601C63.8306 17.3304 64.4198 17.0868 64.9508 16.7413C65.5354 16.3573 66.0399 15.8609 66.4359 15.28C66.8668 14.6496 67.1635 13.9352 67.3073 13.1822C67.4563 12.3816 67.4355 11.558 67.2464 10.7661C67.0537 9.94087 66.6735 9.17264 66.1361 8.52266L65.9206 8.27884C65.8519 8.19651 65.7645 8.13002 65.6942 8.05402C65.6239 7.97802 65.538 7.89569 65.4599 7.8387L65.2132 7.64554C65.1321 7.58036 65.0465 7.5211 64.9571 7.46821L64.6947 7.30039L64.4215 7.15948C64.332 7.11094 64.2397 7.06811 64.145 7.03124C63.4138 6.72609 62.6225 6.59762 61.8339 6.656C61.0862 6.71122 60.3606 6.93749 59.7116 7.31781C59.104 7.6784 58.5731 8.15793 58.15 8.72848C57.7535 9.25933 57.4536 9.85769 57.2645 10.4954C57.1044 11.0694 57.0291 11.6643 57.0412 12.2607C57.0544 12.7789 57.139 13.2926 57.2927 13.787C57.4204 14.1952 57.5938 14.5872 57.8095 14.9554V14.9285C57.1193 16.2299 56.782 16.8664 56.7305 16.9662C56.7836 16.8664 57.1302 16.2363 57.8361 14.9443V14.9348C57.6239 14.5677 57.4536 14.1773 57.3286 13.7712C57.1786 13.2805 57.0966 12.7711 57.085 12.2576C57.0762 11.6658 57.1525 11.0759 57.3114 10.5065C57.4996 9.87834 57.7957 9.28878 58.1859 8.7649C58.6095 8.19993 59.1405 7.72672 59.7475 7.37322C60.3896 6.99817 61.1072 6.77568 61.8463 6.7225C62.6256 6.66467 63.4073 6.79207 64.1294 7.09457C64.2229 7.13127 64.3142 7.17356 64.4027 7.22123C64.4917 7.26872 64.5823 7.31464 64.6729 7.36055L64.9305 7.51888C65.0192 7.57142 65.1037 7.63069 65.1835 7.6962L65.4287 7.88778C65.5115 7.95111 65.5849 8.03027 65.6598 8.10152C65.7348 8.17276 65.816 8.24243 65.8831 8.32317L66.0908 8.56383C66.619 9.20368 66.9932 9.95925 67.184 10.7709C67.3699 11.5535 67.3906 12.3671 67.2449 13.1584C67.104 13.9033 66.8115 14.6103 66.386 15.2341C65.9954 15.8092 65.4972 16.3009 64.9196 16.6812C64.3954 17.025 63.813 17.2677 63.2018 17.3968L62.7708 17.4665C62.6287 17.4791 62.4866 17.4839 62.3476 17.4918C62.0774 17.5036 61.8066 17.4904 61.5387 17.4522C61.0526 17.3841 60.579 17.2438 60.1332 17.0358C59.7569 16.8581 59.4026 16.636 59.0776 16.374L58.9808 16.2964L59.0557 16.3978L59.0635 16.3709L56.7305 16.9709Z" fill="black"/>
<path d="M63.6061 11.8712C63.6101 11.9715 63.643 12.0683 63.7009 12.1497C63.7587 12.2311 63.8389 12.2934 63.9315 12.3289C64.024 12.3644 64.1248 12.3716 64.2213 12.3495C64.3178 12.3273 64.4058 12.2769 64.4742 12.2045C64.5427 12.1321 64.5886 12.0408 64.6063 11.9421C64.624 11.8434 64.6127 11.7416 64.5738 11.6494C64.5348 11.5572 64.47 11.4786 64.3873 11.4235C64.3047 11.3683 64.2079 11.339 64.1089 11.3393C64.0414 11.3407 63.9749 11.3556 63.9131 11.3831C63.8513 11.4106 63.7955 11.4502 63.7488 11.4996C63.7021 11.549 63.6655 11.6073 63.641 11.671C63.6165 11.7348 63.6046 11.8028 63.6061 11.8712Z" fill="black"/>
<path d="M61.5905 11.8713C61.5944 11.9714 61.6274 12.0682 61.6851 12.1495C61.7429 12.2309 61.823 12.2932 61.9155 12.3288C62.0079 12.3644 62.1086 12.3716 62.2051 12.3496C62.3016 12.3276 62.3896 12.2773 62.4581 12.2051C62.5266 12.1328 62.5727 12.0417 62.5905 11.9431C62.6084 11.8445 62.5973 11.7428 62.5586 11.6505C62.5199 11.5583 62.4553 11.4796 62.3729 11.4242C62.2904 11.3689 62.1937 11.3394 62.0949 11.3393C62.0272 11.3405 61.9605 11.3553 61.8986 11.3827C61.8366 11.4101 61.7806 11.4497 61.7337 11.4991C61.6869 11.5485 61.6501 11.6068 61.6255 11.6707C61.6009 11.7346 61.589 11.8027 61.5905 11.8713Z" fill="black"/>
<path d="M59.5776 11.6037C59.5106 11.7254 59.4924 11.8686 59.5267 12.0036C59.561 12.1386 59.6452 12.255 59.7618 12.3288C59.8193 12.3633 59.8831 12.3857 59.9493 12.3946C60.0155 12.4034 60.0828 12.3986 60.1472 12.3804C60.2115 12.3623 60.2715 12.331 60.3237 12.2887C60.3758 12.2464 60.4189 12.1938 60.4505 12.1341C60.5174 12.0123 60.5356 11.8691 60.5013 11.7341C60.467 11.5992 60.3829 11.4827 60.2662 11.4089C60.2088 11.3744 60.145 11.352 60.0788 11.3432C60.0125 11.3343 59.9452 11.3391 59.8809 11.3573C59.8166 11.3755 59.7565 11.4067 59.7044 11.449C59.6522 11.4914 59.6091 11.544 59.5776 11.6037Z" fill="black"/>
</g>
<defs>
<clipPath id="clip0">
<rect width="94" height="59" fill="white"/>
</clipPath>
</defs>
</svg>
