<svg width="55" height="55" viewBox="0 0 55 55" fill="none" xmlns="http://www.w3.org/2000/svg">
<path d="M55.0043 27.4958C55.0043 32.934 53.3917 38.25 50.3704 42.7716C47.3492 47.2933 43.0549 50.8175 38.0307 52.8986C33.0065 54.9797 27.478 55.5242 22.1443 54.4633C16.8107 53.4023 11.9114 50.7836 8.06604 46.9383C4.22068 43.0929 1.60196 38.1936 0.541032 32.86C-0.5199 27.5263 0.0246086 21.9978 2.1057 16.9736C4.18679 11.9494 7.711 7.65516 12.2327 4.63388C16.7543 1.6126 22.0704 0 27.5085 0C34.8008 0 41.7945 2.89687 46.951 8.05333C52.1074 13.2098 55.0043 20.2035 55.0043 27.4958Z" fill="#FF0059"/>
</svg>
